<?xml version="1.0" encoding="UTF-8" standalone="no"?>
<svg
   xmlns:dc="http://purl.org/dc/elements/1.1/"
   xmlns:cc="http://creativecommons.org/ns#"
   xmlns:rdf="http://www.w3.org/1999/02/22-rdf-syntax-ns#"
   xmlns:svg="http://www.w3.org/2000/svg"
   xmlns="http://www.w3.org/2000/svg"
   xmlns:sodipodi="http://sodipodi.sourceforge.net/DTD/sodipodi-0.dtd"
   xmlns:inkscape="http://www.inkscape.org/namespaces/inkscape"
   version="1.1"
   id="svg2"
   xml:space="preserve"
   width="7466.6665"
   height="3733.3333"
   viewBox="0 0 7466.6665 3733.3333"
   sodipodi:docname="1405992047-vector.eps"><metadata
     id="metadata8"><rdf:RDF><cc:Work
         rdf:about=""><dc:format>image/svg+xml</dc:format><dc:type
           rdf:resource="http://purl.org/dc/dcmitype/StillImage" /></cc:Work></rdf:RDF></metadata><defs
     id="defs6" /><sodipodi:namedview
     pagecolor="#ffffff"
     bordercolor="#666666"
     borderopacity="1"
     objecttolerance="10"
     gridtolerance="10"
     guidetolerance="10"
     inkscape:pageopacity="0"
     inkscape:pageshadow="2"
     inkscape:window-width="640"
     inkscape:window-height="480"
     id="namedview4" /><g
     id="g10"
     inkscape:groupmode="layer"
     inkscape:label="ink_ext_XXXXXX"
     transform="matrix(1.3333333,0,0,-1.3333333,0,3733.3333)"><g
       id="g12"
       transform="scale(0.1)"><path
         d="M 56000,0 H 0 V 28000 H 56000 V 0"
         style="fill:#ffffff;fill-opacity:1;fill-rule:nonzero;stroke:none"
         id="path14" /><path
         d="m 2096.07,25701.4 c 131.64,25.4 298.28,215 184.41,455.6 -124.37,262.9 78.92,432 -185.46,599.5 0,0 -178.67,127 -393.13,-43.7 -173.29,-137.9 -535.55,-88 -528,-427 7.56,-339.1 373.59,-254.9 485.5,-352.1 111.92,-97.3 222.53,-273.6 436.68,-232.3"
         style="fill:#211c1d;fill-opacity:1;fill-rule:nonzero;stroke:none"
         id="path16" /><path
         d="m 1378.65,26760.2 c 0,0 200.15,-88.2 228.89,188.6 22.92,220.8 -110.47,324.7 -251.6,289.7 -141.14,-35 -207.67,-346.6 22.71,-478.3"
         style="fill:#211c1d;fill-opacity:1;fill-rule:nonzero;stroke:none"
         id="path18" /><path
         d="m 1967.48,26954.5 c 188.69,32.9 286.08,405.1 97.77,501.9 0,0 -188.07,90.5 -293.72,-147 -76.85,-172.8 7.24,-387.8 195.95,-354.9"
         style="fill:#211c1d;fill-opacity:1;fill-rule:nonzero;stroke:none"
         id="path20" /><path
         d="m 2637.13,26863.7 c 117.96,150.2 80.27,262.1 -24.46,328.3 0,0 -146.32,72.7 -266.02,-54 -119.71,-126.8 -148.6,-270.3 -80.46,-338.2 98.39,-98.2 252.99,-86.4 370.94,63.9"
         style="fill:#211c1d;fill-opacity:1;fill-rule:nonzero;stroke:none"
         id="path22" /><path
         d="m 2404.07,26246.4 c 71.83,-122.6 268.54,-76.6 356.79,-8.3 107.53,83.2 183.32,204.2 91.19,326.3 0,0 -99.53,127.2 -291.65,12.8 -150.7,-89.8 -228.17,-208.3 -156.33,-330.8"
         style="fill:#211c1d;fill-opacity:1;fill-rule:nonzero;stroke:none"
         id="path24" /><path
         d="m 375.359,27536.9 c 139.653,49.9 347.473,59.9 416.434,266.8 17.957,53.9 13.203,127.7 -18.324,196.3 H 0.00390625 v -752.7 C 177.211,27268.2 265.957,27497.8 375.359,27536.9"
         style="fill:#211c1d;fill-opacity:1;fill-rule:nonzero;stroke:none"
         id="path26" /><path
         d="m 55830.5,27286.2 c 64.8,-34.5 120.5,-44.6 169.5,-38.9 v 752.7 h -288.1 c 1,-14.2 2.6,-28.9 5.1,-44.2 35.3,-218.7 -185.7,-510 113.5,-669.6"
         style="fill:#211c1d;fill-opacity:1;fill-rule:nonzero;stroke:none"
         id="path28" /><path
         d="m 55517.3,27697.3 c 0,0 174.9,131.2 -52.2,291.9 -5.4,3.8 -10.7,7.4 -16,10.8 h -311.3 c -22.3,-23.7 -39,-53.6 -48.5,-88.2 -38.7,-140.1 200.3,-350.9 428,-214.5"
         style="fill:#211c1d;fill-opacity:1;fill-rule:nonzero;stroke:none"
         id="path30" /><path
         d="M 485.051,187.699 C 246.73,204.5 171.898,383 0.00390625,363.898 V 0 H 773.469 C 730.59,93.3008 638.102,177 485.051,187.699"
         style="fill:#211c1d;fill-opacity:1;fill-rule:nonzero;stroke:none"
         id="path32" /><path
         d="M 43.8711,844.902 C 30.5781,877 15.8398,903.898 0.00390625,926.301 v -393 C 74.6406,596.301 99.7617,710.102 43.8711,844.902"
         style="fill:#211c1d;fill-opacity:1;fill-rule:nonzero;stroke:none"
         id="path34" /><path
         d="m 410.027,885.602 c 0,0 -159.656,-24.399 -154.019,-248 4.418,-175.301 69.746,-300.903 211.734,-298.403 141.992,2.602 198.356,196.602 182.067,307.004 -19.844,134.5 -88.168,259.899 -239.782,239.399"
         style="fill:#211c1d;fill-opacity:1;fill-rule:nonzero;stroke:none"
         id="path36" /><path
         d="m 13133.8,9065.9 c 0,0 -123.9,180.8 -384.1,94.6 -210.2,-69.7 -533,102.1 -642.9,-218.8 -109.8,-320.9 262.8,-368 334.3,-497.9 71.5,-129.9 114.6,-333.5 329.9,-368.6 132.3,-21.5 354,98.9 330.2,364.1 -26.1,289.6 223,378.3 32.6,626.6"
         style="fill:#211c1d;fill-opacity:1;fill-rule:nonzero;stroke:none"
         id="path38" /><path
         d="m 12742.5,9414.6 c 97.7,199.3 8.3,342.8 -136.3,358.6 -144.5,15.8 -314.4,-253.7 -143.6,-456.7 0,0 157.5,-151.8 279.9,98.1"
         style="fill:#211c1d;fill-opacity:1;fill-rule:nonzero;stroke:none"
         id="path40" /><path
         d="m 13082.3,9295.8 c 188.5,-34.2 408.3,281.6 264.9,437.4 0,0 -145.4,149.7 -326.4,-36.8 -131.7,-135.6 -126.9,-366.4 61.5,-400.6"
         style="fill:#211c1d;fill-opacity:1;fill-rule:nonzero;stroke:none"
         id="path42" /><path
         d="m 13501.5,9337.3 c -156,-77.7 -232.7,-202.5 -192.1,-289.8 58.5,-126 207.7,-168.2 370.2,-67.9 162.5,100.3 165.7,218.3 90.2,316.6 0,0 -112.2,118.8 -268.3,41.1"
         style="fill:#211c1d;fill-opacity:1;fill-rule:nonzero;stroke:none"
         id="path44" /><path
         d="m 13508.8,8737.1 c -172.4,-32.3 -286,-116.8 -260.8,-256.6 25.1,-139.8 225.6,-164.5 332,-130.8 129.6,41.1 242.5,128.5 198.1,274.9 0,0 -49.5,153.7 -269.3,112.5"
         style="fill:#211c1d;fill-opacity:1;fill-rule:nonzero;stroke:none"
         id="path46" /><path
         d="m 11219.6,10829.9 c -248.2,151.5 -171,404.5 -483.9,399.4 0,0 -219.1,8.2 -304.8,-252.2 -69.2,-210.3 -399.4,-367.4 -207.1,-646.7 192.3,-279.3 452.2,-8.1 599.1,-28 146.9,-19.9 336.1,-106.6 492.5,45.4 96.1,93.5 131.5,343.4 -95.8,482.1"
         style="fill:#211c1d;fill-opacity:1;fill-rule:nonzero;stroke:none"
         id="path48" /><path
         d="m 10222.6,11122.7 c -102,197.1 -270.5,210.8 -369.29,104.1 -98.8,-106.7 16.54,-403.7 281.39,-387.4 0,0 215.7,36.1 87.9,283.3"
         style="fill:#211c1d;fill-opacity:1;fill-rule:nonzero;stroke:none"
         id="path50" /><path
         d="m 10520.4,11324.9 c 139.7,131.1 16.9,495.7 -193.7,473.3 0,0 -206.8,-27.6 -164.8,-284.1 30.5,-186.6 218.8,-320.2 358.5,-189.2"
         style="fill:#211c1d;fill-opacity:1;fill-rule:nonzero;stroke:none"
         id="path52" /><path
         d="m 10736.7,11686.3 c -30.5,-171.6 24.1,-307.4 118.3,-326.9 136.1,-28 258.9,66.7 275.1,257 16.2,190.3 -76.7,263.1 -200.6,261 0,0 -162.2,-19.4 -192.8,-191.1"
         style="fill:#211c1d;fill-opacity:1;fill-rule:nonzero;stroke:none"
         id="path54" /><path
         d="m 11474,11484.1 c 0,0 -153,51.7 -250.9,-149.4 -76.7,-157.7 -76.4,-299.3 50.8,-362.3 127.3,-63 266.6,83.3 302.9,188.8 44.2,128.6 41.2,271.3 -102.8,322.9"
         style="fill:#211c1d;fill-opacity:1;fill-rule:nonzero;stroke:none"
         id="path56" /><path
         d="m 28815.7,15400 c -210.3,-69.7 -533.1,102.1 -642.9,-218.8 -109.9,-320.9 262.8,-368 334.3,-497.9 71.5,-129.9 114.5,-333.5 329.8,-368.6 132.3,-21.6 354.1,98.9 330.2,364.1 -26.1,289.6 223.1,378.3 32.6,626.6 0,0 -123.9,180.8 -384,94.6"
         style="fill:#211c1d;fill-opacity:1;fill-rule:nonzero;stroke:none"
         id="path58" /><path
         d="m 28528.6,15556 c 0,0 157.4,-151.8 279.9,98.1 97.6,199.3 8.2,342.8 -136.3,358.6 -144.6,15.8 -314.5,-253.8 -143.6,-456.7"
         style="fill:#211c1d;fill-opacity:1;fill-rule:nonzero;stroke:none"
         id="path60" /><path
         d="m 29413.1,15972.7 c 0,0 -145.3,149.7 -326.4,-36.8 -131.7,-135.6 -126.9,-366.4 61.6,-400.6 188.5,-34.2 408.2,281.6 264.8,437.4"
         style="fill:#211c1d;fill-opacity:1;fill-rule:nonzero;stroke:none"
         id="path62" /><path
         d="m 29567.5,15576.8 c -156.1,-77.8 -232.7,-202.5 -192.2,-289.8 58.5,-126 207.7,-168.2 370.2,-67.9 162.6,100.3 165.8,218.3 90.3,316.6 0,0 -112.3,118.8 -268.3,41.1"
         style="fill:#211c1d;fill-opacity:1;fill-rule:nonzero;stroke:none"
         id="path64" /><path
         d="m 29574.7,14976.6 c -172.4,-32.3 -286,-116.8 -260.8,-256.6 25.2,-139.8 225.7,-164.5 332.1,-130.8 129.6,41 242.5,128.5 198.1,274.9 0,0 -49.6,153.7 -269.4,112.5"
         style="fill:#211c1d;fill-opacity:1;fill-rule:nonzero;stroke:none"
         id="path66" /><path
         d="m 20941.8,12474 c 0,0 205.1,-77.4 369.2,142.1 132.5,177.4 495.6,221.2 402.2,547.2 -93.5,326 -426.1,151.6 -559,217.3 -133,65.6 -284.7,208 -481.4,113.6 -120.9,-57.9 -233.9,-283.6 -62.6,-487.4 187,-222.7 33.4,-437.9 331.6,-532.8"
         style="fill:#211c1d;fill-opacity:1;fill-rule:nonzero;stroke:none"
         id="path68" /><path
         d="m 21779.1,12195.6 c 127.6,69.7 112.8,388 -143.5,456.8 0,0 -215.9,34.5 -173.4,-240.5 33.9,-219.4 189.3,-286 316.9,-216.3"
         style="fill:#211c1d;fill-opacity:1;fill-rule:nonzero;stroke:none"
         id="path70" /><path
         d="m 21115.5,12314.9 c -174.2,-79.8 -173.8,-464.5 32.9,-510.3 0,0 204.9,-39.7 246.7,216.9 30.5,186.6 -105.5,373.2 -279.6,293.4"
         style="fill:#211c1d;fill-opacity:1;fill-rule:nonzero;stroke:none"
         id="path72" /><path
         d="m 20795.3,12041.2 c 83.6,153 75.1,299.1 -8,347.5 -120.1,69.9 -266.7,19.2 -342.6,-156 -75.9,-175.2 -11.1,-273.9 107.1,-311.3 0,0 160,-33.2 243.5,119.8"
         style="fill:#211c1d;fill-opacity:1;fill-rule:nonzero;stroke:none"
         id="path74" /><path
         d="m 20166.1,12806.3 c -82.8,-107.8 -125.4,-244 -5.3,-338.8 0,0 128.6,-97.7 285.4,61.8 122.9,125.1 167.7,259.4 67.1,359.7 -100.6,100.2 -279.1,5.8 -347.2,-82.7"
         style="fill:#211c1d;fill-opacity:1;fill-rule:nonzero;stroke:none"
         id="path76" /><path
         d="m 22070.1,5687.9 c -223.8,185.8 -110.9,425 -421.3,465.1 0,0 -215.6,39.6 -337.9,-205.7 -98.8,-198.2 -448.3,-305.9 -298.2,-610.1 150.1,-304.1 446.3,-73.2 588.8,-114.1 142.5,-40.9 317.2,-153.9 493.9,-26 108.6,78.6 179.6,320.8 -25.3,490.8"
         style="fill:#211c1d;fill-opacity:1;fill-rule:nonzero;stroke:none"
         id="path78" /><path
         d="m 20997.9,5853.8 c 0,0 218.7,4.6 127.8,267.6 -72.5,209.8 -237.3,247.6 -350.4,156.3 -113.2,-91.4 -41.8,-401.9 222.6,-423.9"
         style="fill:#211c1d;fill-opacity:1;fill-rule:nonzero;stroke:none"
         id="path80" /><path
         d="m 21449.5,6278.6 c 157.2,109.5 88.2,488 -123.3,496.2 0,0 -208.7,2.6 -204.1,-257.3 3.3,-189.1 170.3,-348.4 327.4,-238.9"
         style="fill:#211c1d;fill-opacity:1;fill-rule:nonzero;stroke:none"
         id="path82" /><path
         d="m 21785.7,6264.5 c 130.6,-47.4 265.7,28.6 309.2,214.6 43.5,185.9 -37.9,271.5 -160.8,287.2 0,0 -163.4,4.2 -218.4,-161.3 -54.9,-165.4 -20.5,-307.7 70,-340.5"
         style="fill:#211c1d;fill-opacity:1;fill-rule:nonzero;stroke:none"
         id="path84" /><path
         d="m 22416.1,6298.6 c 0,0 -143.9,73.3 -269.7,-111.6 -98.7,-145.1 -118.9,-285.2 -2,-365.9 116.9,-80.7 275.7,44 326.9,143.2 62.3,120.9 79.9,262.6 -55.2,334.3"
         style="fill:#211c1d;fill-opacity:1;fill-rule:nonzero;stroke:none"
         id="path86" /><path
         d="m 9729.34,4838.3 c 0,0 -176.95,129.4 -393.68,-38.4 -175.15,-135.5 -536.7,-80.7 -533.72,-419.9 2.98,-339.1 370.11,-259.8 480.7,-358.6 110.6,-98.8 218.82,-276.5 433.51,-238.1 131.97,23.6 301.15,210.9 190.54,453.1 -120.81,264.5 84.75,430.9 -177.35,601.9"
         style="fill:#211c1d;fill-opacity:1;fill-rule:nonzero;stroke:none"
         id="path88" /><path
         d="m 8996.82,5330.2 c -141.59,-33.1 -212.33,-343.8 16.27,-478.5 0,0 198.93,-90.9 231.4,185.5 25.9,220.4 -106.08,326.1 -247.67,293"
         style="fill:#211c1d;fill-opacity:1;fill-rule:nonzero;stroke:none"
         id="path90" /><path
         d="m 9413.33,5395.5 c -79.17,-171.7 2.02,-387.8 191.14,-357.5 189.12,30.4 291.53,401.2 104.54,500.6 0,0 -186.83,92.9 -295.68,-143.1"
         style="fill:#211c1d;fill-opacity:1;fill-rule:nonzero;stroke:none"
         id="path92" /><path
         d="m 9901.07,4879.2 c 97.06,-99.4 251.83,-89.7 371.73,58.9 120,148.6 83.8,261 -20,328.6 0,0 -145.3,74.8 -266.71,-50.4 -121.41,-125.1 -152.23,-268.2 -85.02,-337.1"
         style="fill:#211c1d;fill-opacity:1;fill-rule:nonzero;stroke:none"
         id="path94" /><path
         d="m 10192.3,4652.7 c -151.9,-87.8 -231.01,-205.2 -160.8,-328.7 70.1,-123.5 267.5,-80.2 356.6,-13.1 108.7,81.8 186.1,201.8 95.6,325.1 0,0 -97.8,128.6 -291.4,16.7"
         style="fill:#211c1d;fill-opacity:1;fill-rule:nonzero;stroke:none"
         id="path96" /><path
         d="m 7459.09,2987.5 c -284.44,60.6 -295.64,324.8 -589.13,216.1 0,0 -209.32,-65 -203.69,-339 4.55,-221.5 -254.82,-479.2 19.35,-678.9 274.16,-199.6 429.17,142.5 574.39,172.5 145.22,30 352.43,11.1 449.48,206.4 59.65,120.1 10.01,367.5 -250.4,422.9"
         style="fill:#211c1d;fill-opacity:1;fill-rule:nonzero;stroke:none"
         id="path98" /><path
         d="m 6421.4,2932.7 c -161.63,152.1 -325.13,109 -382.89,-24.4 -57.77,-133.5 149.65,-375.4 394.03,-272 0,0 191.5,105.7 -11.14,296.4"
         style="fill:#211c1d;fill-opacity:1;fill-rule:nonzero;stroke:none"
         id="path100" /><path
         d="m 6295.37,3604.5 c 0,0 -185.95,-94.7 -61.19,-322.8 90.76,-165.9 312.7,-229.4 400.97,-59.4 88.26,170 -148.6,473.2 -339.78,382.2"
         style="fill:#211c1d;fill-opacity:1;fill-rule:nonzero;stroke:none"
         id="path102" /><path
         d="m 6939.36,3366 c 137.71,18.7 222.07,148.8 174.18,333.7 -47.9,184.8 -159.73,222.7 -275.88,179.6 0,0 -146.61,-72.2 -118.42,-244.2 C 6747.43,3463 6844,3353 6939.36,3366"
         style="fill:#211c1d;fill-opacity:1;fill-rule:nonzero;stroke:none"
         id="path104" /><path
         d="m 7685.97,3418.6 c -0.96,136 -51.19,269.7 -204.18,270.5 0,0 -161.5,-2 -187,-224.2 -19.99,-174.3 27.25,-307.8 168.22,-324.9 140.97,-17.2 223.75,167 222.96,278.6"
         style="fill:#211c1d;fill-opacity:1;fill-rule:nonzero;stroke:none"
         id="path106" /><path
         d="m 320.637,6105.8 c 128.191,74.6 330.687,122.4 360.711,338.4 C 699.801,6577 574.18,6795.9 309.652,6765.8 176.27,6750.6 84.332,6795.1 0.00390625,6828 V 5751.3 C 174.078,5801.3 219.336,6046.9 320.637,6105.8"
         style="fill:#211c1d;fill-opacity:1;fill-rule:nonzero;stroke:none"
         id="path108" /><path
         d="m 264.977,6911.6 c 139.132,28.4 159.132,229.5 122.961,335 -44.067,128.7 -134.133,239.4 -279.461,191.6 0,0 -84.2973,-29.4 -108.47309375,-134.5 V 7178.6 C 0.746094,7174.5 1.42969,7170.5 2.32031,7166.3 38.6797,6994.7 125.84,6883.1 264.977,6911.6"
         style="fill:#211c1d;fill-opacity:1;fill-rule:nonzero;stroke:none"
         id="path110" /><path
         d="m 3228.48,6329 c -234.03,172.6 -135.08,417.8 -447.24,440.1 0,0 -217.5,27.3 -325.57,-224.6 -87.33,-203.5 -430.03,-331.1 -262.81,-626.2 167.22,-295 449.71,-47.5 594.35,-80.2 144.64,-32.7 325.52,-135.5 494.59,2.3 103.91,84.7 160.93,330.5 -53.32,488.6"
         style="fill:#211c1d;fill-opacity:1;fill-rule:nonzero;stroke:none"
         id="path112" /><path
         d="m 2260.81,6707.7 c -84.36,205.3 -251.04,233.6 -358.77,135.9 -107.74,-97.6 -18.77,-403.6 246.48,-410.4 0,0 218.05,17.1 112.29,274.5"
         style="fill:#211c1d;fill-opacity:1;fill-rule:nonzero;stroke:none"
         id="path114" /><path
         d="m 2575.12,6883.2 c 150.61,118.3 60.13,492.2 -151.57,488.3 0,0 -208.45,-9.4 -189.04,-268.6 14.12,-188.6 190,-338.1 340.61,-219.7"
         style="fill:#211c1d;fill-opacity:1;fill-rule:nonzero;stroke:none"
         id="path116" /><path
         d="m 2911.5,6888.3 c 133.15,-39.8 263.71,43.8 296.47,231.9 32.76,188.2 -53.42,268.9 -177.02,277.6 0,0 -163.34,-5.2 -208.74,-173.5 -45.41,-168.3 -2.9,-308.4 89.29,-336"
         style="fill:#211c1d;fill-opacity:1;fill-rule:nonzero;stroke:none"
         id="path118" /><path
         d="m 3538.96,6958.5 c 0,0 -147.9,64.9 -262.91,-126.9 -90.2,-150.5 -102.31,-291.6 18.97,-365.4 121.28,-73.9 272.78,59.7 318.16,161.6 55.31,124.3 64.76,266.7 -74.22,330.7"
         style="fill:#211c1d;fill-opacity:1;fill-rule:nonzero;stroke:none"
         id="path120" /><path
         d="m 55682.4,6783.7 c 0,0 -177.8,-128.1 -85.5,-386.2 74.6,-208.5 -89.6,-535.3 233.8,-637.6 67.8,-21.4 123.1,-21.9 169.3,-8.6 V 6828 c -98.3,38.5 -186.3,61.3 -317.6,-44.3"
         style="fill:#211c1d;fill-opacity:1;fill-rule:nonzero;stroke:none"
         id="path122" /><path
         d="m 55447.7,6106.9 c 0,0 148.1,160.9 -104.6,277.5 -201.6,92.9 -343,0.2 -355.4,-144.7 -12.4,-144.9 261.1,-308.4 460,-132.8"
         style="fill:#211c1d;fill-opacity:1;fill-rule:nonzero;stroke:none"
         id="path124" /><path
         d="m 55054.7,6655.9 c 138.7,-128.5 369.4,-118.2 399.1,71 29.7,189.2 -291.1,401.5 -443.5,254.5 0,0 -146.3,-148.8 44.4,-325.5"
         style="fill:#211c1d;fill-opacity:1;fill-rule:nonzero;stroke:none"
         id="path126" /><path
         d="m 55696.7,6959.7 c 124.6,61.4 163.3,211.6 59.2,371.7 -104.1,160.1 -222.2,160.5 -318.6,82.8 0,0 -116.1,-115 -34.8,-269.2 81.4,-154.2 207.9,-227.9 294.2,-185.3"
         style="fill:#211c1d;fill-opacity:1;fill-rule:nonzero;stroke:none"
         id="path128" /><path
         d="m 56000,7178.6 v 125.1 c -7.7,-33.5 -9.2,-74.7 0,-125.1"
         style="fill:#211c1d;fill-opacity:1;fill-rule:nonzero;stroke:none"
         id="path130" /><path
         d="m 19288.3,7023.3 c -270.3,107.3 -237.1,369.7 -544.6,311.7 0,0 -217.3,-29.2 -257.6,-300.3 -32.5,-219 -331.4,-429.8 -94.5,-672.4 236.9,-242.7 447,68.7 595.2,73.9 148.2,5.3 349.3,-48 477.7,128.3 78.8,108.4 71.3,360.7 -176.2,458.8"
         style="fill:#211c1d;fill-opacity:1;fill-rule:nonzero;stroke:none"
         id="path132" /><path
         d="m 18256.1,7142.8 c -133.9,177 -302.3,162 -381.6,40.1 -79.3,-121.9 84.8,-395.1 343,-334.1 0,0 206.5,72.1 38.6,294"
         style="fill:#211c1d;fill-opacity:1;fill-rule:nonzero;stroke:none"
         id="path134" /><path
         d="m 18515.3,7392.7 c 115.4,152.8 -67.4,491.3 -271.1,433.6 0,0 -199.2,-62.3 -114.3,-308 61.7,-178.7 269.9,-278.5 385.4,-125.6"
         style="fill:#211c1d;fill-opacity:1;fill-rule:nonzero;stroke:none"
         id="path136" /><path
         d="m 18667.2,7785.5 c -1,-174.3 75.8,-298.9 172,-302.1 138.9,-4.6 243.9,109.6 227.6,299.8 -16.3,190.3 -120.2,246.4 -242,223.3 0,0 -156.6,-46.6 -157.6,-221"
         style="fill:#211c1d;fill-opacity:1;fill-rule:nonzero;stroke:none"
         id="path138" /><path
         d="m 19428.1,7711.2 c 0,0 -159.6,25.1 -221.9,-189.7 -48.9,-168.5 -24.6,-308 111.5,-348.5 136.1,-40.5 248.5,127.3 266.4,237.4 21.8,134.2 -5.3,274.4 -156,300.8"
         style="fill:#211c1d;fill-opacity:1;fill-rule:nonzero;stroke:none"
         id="path140" /><path
         d="m 27248.1,8572.8 c -27.4,131.2 -219.5,294.9 -458.4,177.2 -260.9,-128.5 -433.2,72.1 -596.5,-194.8 0,0 -124.1,-180.7 49.9,-392.4 140.6,-171.1 96.4,-534.1 435.3,-521.3 338.9,12.9 248.9,377.6 344.4,491 95.5,113.4 270,226.8 225.3,440.3"
         style="fill:#211c1d;fill-opacity:1;fill-rule:nonzero;stroke:none"
         id="path142" /><path
         d="m 26008.6,8064.7 c -221.1,19.5 -322.9,-115.5 -285.7,-256.1 37.2,-140.6 349.9,-202.2 477.9,30.2 0,0 85,201.5 -192.2,225.9"
         style="fill:#211c1d;fill-opacity:1;fill-rule:nonzero;stroke:none"
         id="path144" /><path
         d="m 25997.2,8424.5 c -35.9,188.2 -409.5,279.7 -503.4,89.9 0,0 -87.4,-189.5 151.7,-291.4 174,-74.1 387.6,13.4 351.7,201.5"
         style="fill:#211c1d;fill-opacity:1;fill-rule:nonzero;stroke:none"
         id="path146" /><path
         d="m 25749.7,9065.9 c 0,0 -70.5,-147.4 58.1,-265.1 128.7,-117.7 272.6,-144.4 339.5,-75.2 96.6,100 82.3,254.3 -69.7,369.9 -152.1,115.6 -263.4,76.2 -327.9,-29.6"
         style="fill:#211c1d;fill-opacity:1;fill-rule:nonzero;stroke:none"
         id="path148" /><path
         d="m 26373.4,9315.1 c 0,0 -125.7,-101.5 -8.2,-291.8 92.2,-149.3 211.9,-224.9 333.3,-151.1 121.3,73.7 72.3,269.7 2.6,356.9 -84.9,106.2 -207.1,180.1 -327.7,86"
         style="fill:#211c1d;fill-opacity:1;fill-rule:nonzero;stroke:none"
         id="path150" /><path
         d="m 33291.6,13185.3 c 55.6,-334.6 405.9,-199.3 530.5,-279.7 124.6,-80.5 259.1,-239.2 465.2,-168 126.7,43.8 264.8,255.1 118,477.1 -160.4,242.6 16.8,438.9 -268.6,567.2 0,0 -194.9,100.3 -383,-99 -152,-161.1 -517.7,-163.1 -462.1,-497.6"
         style="fill:#211c1d;fill-opacity:1;fill-rule:nonzero;stroke:none"
         id="path152" /><path
         d="m 33427,13684 c 0,0 210.6,-58.9 199.8,219.1 -8.6,221.8 -155.4,305.7 -290.1,251.1 -134.7,-54.7 -156.4,-372.6 90.3,-470.2"
         style="fill:#211c1d;fill-opacity:1;fill-rule:nonzero;stroke:none"
         id="path154" /><path
         d="m 33982.3,13959.8 c 182.1,59.4 225.8,441.6 25.6,510.7 0,0 -198.9,62.9 -269.9,-187.2 -51.5,-181.9 62.2,-382.8 244.3,-323.5"
         style="fill:#211c1d;fill-opacity:1;fill-rule:nonzero;stroke:none"
         id="path156" /><path
         d="m 34300,13849 c 111.3,-83.2 262.6,-49.6 358.1,115.8 95.5,165.4 42.3,270.8 -70.8,321.5 0,0 -155.1,51.3 -255.6,-91.1 -100.6,-142.5 -108.8,-288.6 -31.7,-346.2"
         style="fill:#211c1d;fill-opacity:1;fill-rule:nonzero;stroke:none"
         id="path158" /><path
         d="m 34913.3,13699.1 c 0,0 -116.6,111.8 -290.5,-28.8 -136.5,-110.2 -196.4,-238.5 -107.9,-349.6 88.5,-111.1 276.7,-37.7 354.4,42.4 94.6,97.6 152.5,228.1 44,336"
         style="fill:#211c1d;fill-opacity:1;fill-rule:nonzero;stroke:none"
         id="path160" /><path
         d="m 44273.4,16591.3 c 0,0 -189.4,-110.3 -122.6,-376.1 53.9,-214.8 -141.2,-524 170.6,-657.3 311.9,-133.2 386.5,234.9 521.3,296.6 134.8,61.7 341,89.6 391.9,301.7 31.3,130.4 -72.4,360.4 -338.6,356.2 -290.8,-4.6 -360.8,250.4 -622.6,78.9"
         style="fill:#211c1d;fill-opacity:1;fill-rule:nonzero;stroke:none"
         id="path162" /><path
         d="m 43974,15940.5 c 0,0 163,145.8 -77.1,286.3 -191.6,112.1 -341.3,33.6 -367.8,-109.4 -26.4,-143 229.8,-332.3 444.9,-176.9"
         style="fill:#211c1d;fill-opacity:1;fill-rule:nonzero;stroke:none"
         id="path164" /><path
         d="m 43623.8,16853.4 c 0,0 -160.1,-133.9 12.5,-328.2 125.6,-141.4 356.1,-153.7 404.1,31.8 48,185.4 -250.7,427.9 -416.6,296.4"
         style="fill:#211c1d;fill-opacity:1;fill-rule:nonzero;stroke:none"
         id="path166" /><path
         d="m 44304.8,16765 c 130,49.1 183.1,194.7 95.1,364.2 -88,169.5 -205.5,181.4 -309.1,113.4 0,0 -126.7,-103.2 -60.8,-264.5 66,-161.4 184.7,-247.1 274.8,-213.1"
         style="fill:#211c1d;fill-opacity:1;fill-rule:nonzero;stroke:none"
         id="path168" /><path
         d="m 44761.2,17201.2 c 0,0 -157,-38 -132.1,-260.3 19.5,-174.3 95.4,-293.8 236.6,-279 141.3,14.8 180.7,212.9 155,321.4 -31.3,132.4 -110.2,251.4 -259.5,217.9"
         style="fill:#211c1d;fill-opacity:1;fill-rule:nonzero;stroke:none"
         id="path170" /><path
         d="m 42057.3,11191.3 c 261.6,127 432.7,-74.6 597.6,191.4 0,0 125.2,179.9 -47.6,392.7 -139.6,171.9 -93.3,534.7 -432.3,523.7 -338.9,-10.9 -251.1,-376.1 -347.2,-488.9 -96.2,-112.9 -271.3,-225.3 -227.9,-439 26.7,-131.4 217.8,-296.1 457.4,-179.9"
         style="fill:#211c1d;fill-opacity:1;fill-rule:nonzero;stroke:none"
         id="path172" /><path
         d="m 43129.5,12126.5 c -36.4,140.8 -348.7,204.3 -478,-27.4 0,0 -86.2,-201 190.8,-227 221,-20.7 323.6,113.7 287.2,254.4"
         style="fill:#211c1d;fill-opacity:1;fill-rule:nonzero;stroke:none"
         id="path174" /><path
         d="m 43204.5,11711.7 c -173.5,75.1 -387.6,-11.1 -352.9,-199.5 34.8,-188.3 408,-282 502.9,-92.8 0,0 88.5,189 -150,292.3"
         style="fill:#211c1d;fill-opacity:1;fill-rule:nonzero;stroke:none"
         id="path176" /><path
         d="m 43038.8,11134.9 c -127.9,118.4 -271.7,145.9 -339,77.1 -97.1,-99.4 -83.8,-253.8 67.6,-370.3 151.4,-116.5 262.9,-77.7 328,27.7 0,0 71.4,147.1 -56.6,265.5"
         style="fill:#211c1d;fill-opacity:1;fill-rule:nonzero;stroke:none"
         id="path178" /><path
         d="m 42480.1,10915.6 c -91.2,149.8 -210.5,226.1 -332.3,153 -121.8,-73 -73.9,-269.3 -4.7,-356.8 84.3,-106.7 206,-181.3 327.2,-88 0,0 126.2,100.8 9.8,291.8"
         style="fill:#211c1d;fill-opacity:1;fill-rule:nonzero;stroke:none"
         id="path180" /><path
         d="m 39578.8,11637.7 c 0,0 219.2,-1.5 297,261.2 62.9,212.4 388.3,379.2 187.7,652.7 -200.6,273.4 -452.2,-5.5 -599.6,10.1 -147.5,15.5 -339.2,96.4 -491,-60.2 -93.3,-96.3 -121.1,-347.1 110.2,-479 252.6,-144 183.1,-399.2 495.7,-384.8"
         style="fill:#211c1d;fill-opacity:1;fill-rule:nonzero;stroke:none"
         id="path182" /><path
         d="m 40167.8,12045.5 c 0,0 -214.5,-42.6 -79.4,-285.8 107.9,-194 276.7,-202.6 372.3,-93 95.5,109.6 -28.6,403 -292.9,378.8"
         style="fill:#211c1d;fill-opacity:1;fill-rule:nonzero;stroke:none"
         id="path184" /><path
         d="m 39796.8,11548.6 c -135.7,-135.1 -2,-495.9 207.8,-467.2 0,0 205.9,33.7 156.2,288.9 -36.1,185.6 -228.2,313.5 -364,178.3"
         style="fill:#211c1d;fill-opacity:1;fill-rule:nonzero;stroke:none"
         id="path186" /><path
         d="m 39463.4,11504.1 c -136.9,24 -256.8,-74.3 -267.3,-265 -10.5,-190.7 84.5,-260.8 208.3,-254.9 0,0 161.6,24.2 187,196.7 25.4,172.5 -33.2,306.6 -128,323.2"
         style="fill:#211c1d;fill-opacity:1;fill-rule:nonzero;stroke:none"
         id="path188" /><path
         d="m 39033.1,11878.5 c -129.1,59.1 -263.9,-91.3 -297.1,-197.8 -40.4,-129.9 -33.1,-272.5 112.5,-319.7 0,0 154.4,-47.1 246.2,156.8 72,160 67.5,301.5 -61.6,360.7"
         style="fill:#211c1d;fill-opacity:1;fill-rule:nonzero;stroke:none"
         id="path190" /><path
         d="m 34058.5,34.1016 c 132.6,66.3004 337.7,101.3004 381.3,315.0004 26.7,131.3 -84.8,357.699 -350.7,344.3 -290.5,-14.601 -369.2,237.801 -624.9,57.399 0,0 -185.6,-116.699 -109.7,-380.098 C 33386.1,261 33352.4,123.898 33355.7,0 h 659 c 14,14.6016 28.4,26.3984 43.8,34.1016"
         style="fill:#211c1d;fill-opacity:1;fill-rule:nonzero;stroke:none"
         id="path192" /><path
         d="m 33100.4,373.602 c -195.4,105.398 -342.3,21.8 -363.8,-122 -21.5,-143.801 241.1,-324.3012 450.7,-161.5004 0,0 157.9,151.2964 -86.9,283.5004"
         style="fill:#211c1d;fill-opacity:1;fill-rule:nonzero;stroke:none"
         id="path194" /><path
         d="m 32805.8,990.402 c 0,0 -155.3,-139.3 23.9,-327.601 130.3,-137 361.1,-141.301 402.7,45.699 41.6,186.902 -265.2,419 -426.6,281.902"
         style="fill:#211c1d;fill-opacity:1;fill-rule:nonzero;stroke:none"
         id="path196" /><path
         d="m 33259.2,1395.4 c 0,0 -123.1,-107.4 -51.6,-266.5 71.5,-158.998 193.1,-240.498 281.9,-203.4 128.3,53.5 176.3,200.9 82.5,367.2 -93.8,166.4 -211.6,174.3 -312.8,102.7"
         style="fill:#211c1d;fill-opacity:1;fill-rule:nonzero;stroke:none"
         id="path198" /><path
         d="m 33930.6,1377.2 c 0,0 -155.5,-43.5 -123,-264.7 25.4,-173.602 105.4,-290.398 246.1,-270.801 140.6,19.699 173.2,219.001 143.8,326.601 -35.9,131.2 -118.8,247.4 -266.9,208.9"
         style="fill:#211c1d;fill-opacity:1;fill-rule:nonzero;stroke:none"
         id="path200" /><path
         d="m 36554.2,173.301 c 53.8,215.301 -63.7,336.898 -208.3,322.199 -144.7,-14.797 -254.4,-314 -44.9,-476.6992 0,0 18.6,-11.50002 46.1,-18.8008 h 81.7 c 47.7,14.3984 97,59.6016 125.4,173.301"
         style="fill:#211c1d;fill-opacity:1;fill-rule:nonzero;stroke:none"
         id="path202" /><path
         d="m 37078.8,611.398 c 0,0 -173.5,116.004 -311.5,-104.199 -100.4,-160.301 -47.4,-384.898 144,-378.898 191.5,6 340.3,360.801 167.5,483.097"
         style="fill:#211c1d;fill-opacity:1;fill-rule:nonzero;stroke:none"
         id="path204" /><path
         d="m 37583.5,272.5 c 0,0 -134.6,92.699 -270.9,-16 C 37210,174.801 37157,76.3984 37161.7,0 h 449.6 c 80.4,108.801 53,203.801 -27.8,272.5"
         style="fill:#211c1d;fill-opacity:1;fill-rule:nonzero;stroke:none"
         id="path206" /><path
         d="m 33547.7,27719.7 c 279.7,-108.2 360.4,168.8 467,280.3 h -659 c 3.1,-116.3 38.8,-221 192,-280.3"
         style="fill:#211c1d;fill-opacity:1;fill-rule:nonzero;stroke:none"
         id="path208" /><path
         d="m 36462.7,27160.9 c 97.1,-112 181.8,-302.1 399.6,-291.3 133.9,6.6 325.6,170.8 246.7,425 -86.1,277.8 138.9,416.7 -99.2,619.7 0,0 -159.1,150.8 -395.4,12 -191,-112.1 -542.6,-11.7 -582.9,-348.5 -40.2,-336.7 334,-304.8 431.2,-416.9"
         style="fill:#211c1d;fill-opacity:1;fill-rule:nonzero;stroke:none"
         id="path210" /><path
         d="m 36428.8,28000 h -81.7 c 22.9,-6 52,-9 81.7,0"
         style="fill:#211c1d;fill-opacity:1;fill-rule:nonzero;stroke:none"
         id="path212" /><path
         d="m 37561.6,27944.1 c 19.8,19 36.2,37.6 49.7,55.9 h -449.6 c 1.5,-25.2 9.3,-48 23.6,-67 83.6,-111 238.3,-121.1 376.3,11.1"
         style="fill:#211c1d;fill-opacity:1;fill-rule:nonzero;stroke:none"
         id="path214" /><path
         d="m 37596,27307.3 c 118.2,67.2 210.2,176.4 136.2,310.3 0,0 -80.6,139.9 -286.9,53.6 -161.9,-67.7 -255.3,-174.1 -201.4,-305.5 53.9,-131.4 255.1,-113.6 352.1,-58.4"
         style="fill:#211c1d;fill-opacity:1;fill-rule:nonzero;stroke:none"
         id="path216" /><path
         d="m 37475,6866.9 c -217.9,192.6 -97.7,428.2 -406.7,478 0,0 -214.2,46.3 -344.1,-195.1 -105,-195 -457.6,-291.8 -317.1,-600.5 140.6,-308.7 443.8,-87 585,-132.4 141.2,-45.3 312.3,-163.7 492.8,-41.4 111,75.2 189.5,315.1 -9.9,491.4"
         style="fill:#211c1d;fill-opacity:1;fill-rule:nonzero;stroke:none"
         id="path218" /><path
         d="m 36544.5,7329.6 c -65.9,211.9 -229.4,254.9 -345.4,167.1 -115.9,-87.8 -54.3,-400.4 209.3,-430.6 0,0 218.7,-2.2 136.1,263.5"
         style="fill:#211c1d;fill-opacity:1;fill-rule:nonzero;stroke:none"
         id="path220" /><path
         d="m 36553.2,7725.6 c -2.6,-189.1 159.4,-353.6 319.9,-249 160.4,104.6 103.3,485.1 -107.9,499.9 0,0 -208.5,9 -212,-250.9"
         style="fill:#211c1d;fill-opacity:1;fill-rule:nonzero;stroke:none"
         id="path222" /><path
         d="m 37208.6,7452.1 c 129.1,-51.5 266.5,20.3 315.8,204.8 49.2,184.5 -29.5,272.5 -151.9,292.1 0,0 -163.1,9.3 -223.2,-154.4 -60.1,-163.6 -30.1,-306.9 59.3,-342.5"
         style="fill:#211c1d;fill-opacity:1;fill-rule:nonzero;stroke:none"
         id="path224" /><path
         d="m 37839.8,7466.6 c 0,0 -141.6,77.7 -273.1,-103.3 -103.1,-141.9 -127.6,-281.3 -13.4,-365.6 114.3,-84.3 277,35.4 331.3,133 66,118.8 88,259.9 -44.8,335.9"
         style="fill:#211c1d;fill-opacity:1;fill-rule:nonzero;stroke:none"
         id="path226" /><path
         d="m 35036.1,4983.4 c -257.5,135.2 -196.7,392.6 -508.7,367.5 0,0 -219.1,-6 -287.9,-271.3 -55.5,-214.4 -375,-392.4 -165.1,-658.7 209.9,-266.4 451.8,21 599.7,10.6 147.9,-10.5 342.2,-84.8 488.5,77 90,99.4 109.1,351 -126.5,474.9"
         style="fill:#211c1d;fill-opacity:1;fill-rule:nonzero;stroke:none"
         id="path228" /><path
         d="m 33952.8,4923.1 c 0,0 212.9,49.9 69.5,288.3 -114.5,190.2 -283.5,193 -375.3,80.2 -91.7,-112.8 42.5,-401.8 305.8,-368.5"
         style="fill:#211c1d;fill-opacity:1;fill-rule:nonzero;stroke:none"
         id="path230" /><path
         d="m 34082.7,5892.3 c 0,0 -204.6,-40.9 -146.2,-294.2 42.5,-184.2 238.9,-305.4 369.9,-165.7 131,139.8 -15,495.7 -223.7,459.9"
         style="fill:#211c1d;fill-opacity:1;fill-rule:nonzero;stroke:none"
         id="path232" /><path
         d="m 34679.2,6010.1 c 0,0 -160.7,-29.9 -180.1,-203.1 -19.4,-173.3 43.8,-305.3 139.1,-318.6 137.6,-19.3 254,83.1 257.9,274.1 4,190.9 -93.4,257.6 -216.9,247.6"
         style="fill:#211c1d;fill-opacity:1;fill-rule:nonzero;stroke:none"
         id="path234" /><path
         d="m 35247.8,5652.6 c 0,0 -156,41.8 -240.7,-165.2 -66.4,-162.4 -57.1,-303.6 74,-358.3 131.1,-54.7 260.6,100.2 290.1,207.9 35.8,131.1 23.6,273.4 -123.4,315.6"
         style="fill:#211c1d;fill-opacity:1;fill-rule:nonzero;stroke:none"
         id="path236" /><path
         d="m 47431.9,17999.2 c -252.8,143.7 -183.6,398.9 -496.2,384.1 0,0 -219.2,1.2 -296.7,-261.6 -62.6,-212.5 -387.8,-379.8 -186.8,-652.9 201,-273.2 452.2,6 599.7,-9.3 147.5,-15.3 339.3,-96 490.8,60.8 93.2,96.4 120.7,347.3 -110.8,478.9"
         style="fill:#211c1d;fill-opacity:1;fill-rule:nonzero;stroke:none"
         id="path238" /><path
         d="m 46426.2,18260.6 c -108.1,193.9 -277,202.3 -372.4,92.5 -95.4,-109.7 29.2,-403 293.4,-378.4 0,0 214.5,42.9 79,285.9"
         style="fill:#211c1d;fill-opacity:1;fill-rule:nonzero;stroke:none"
         id="path240" /><path
         d="m 46717.5,18472.1 c 135.5,135.3 1.4,495.9 -208.3,467 0,0 -205.9,-34.1 -155.9,-289.2 36.3,-185.5 228.7,-313.2 364.2,-177.8"
         style="fill:#211c1d;fill-opacity:1;fill-rule:nonzero;stroke:none"
         id="path242" /><path
         d="m 47050.9,18517 c 136.9,-23.8 256.7,74.7 266.9,265.4 10.3,190.7 -84.9,260.7 -208.6,254.7 0,0 -161.6,-24.5 -186.7,-197 -25.2,-172.5 33.6,-306.6 128.4,-323.1"
         style="fill:#211c1d;fill-opacity:1;fill-rule:nonzero;stroke:none"
         id="path244" /><path
         d="m 47665.6,18661 c 0,0 -154.5,46.9 -246,-157.1 -71.7,-160.1 -67.1,-301.6 62.1,-360.6 129.2,-59 263.8,91.6 296.8,198.2 40.2,129.9 32.7,272.5 -112.9,319.5"
         style="fill:#211c1d;fill-opacity:1;fill-rule:nonzero;stroke:none"
         id="path246" /><path
         d="m 50417.7,23323.3 c 0,0 149.1,-160.7 393.8,-37.4 197.8,99.7 542.3,-23 604,310.5 61.7,333.4 -313.8,325.6 -403.5,443.7 -89.7,118 -162.1,313.1 -380.2,316.4 -134,1.9 -335.8,-149.6 -273.4,-408.4 68.2,-282.8 -165.3,-406.9 59.3,-624.8"
         style="fill:#211c1d;fill-opacity:1;fill-rule:nonzero;stroke:none"
         id="path248" /><path
         d="m 51043,22700.8 c 145.3,5.5 274,297 75.3,472.8 0,0 -178,127.2 -262.5,-137.9 -67.5,-211.5 41.9,-340.4 187.2,-334.9"
         style="fill:#211c1d;fill-opacity:1;fill-rule:nonzero;stroke:none"
         id="path250" /><path
         d="m 50502.2,23103.5 c -191.4,6.2 -362.6,-338.3 -198,-471.5 0,0 165.6,-126.8 317.5,84.1 110.5,153.5 72,381.1 -119.5,387.4"
         style="fill:#211c1d;fill-opacity:1;fill-rule:nonzero;stroke:none"
         id="path252" /><path
         d="m 49865.2,23329 c -146.1,-123 -132.1,-240.2 -43,-326.4 0,0 128.4,-101.1 271.4,-1.4 143.1,99.7 200.6,234.3 147.7,314.7 -76.3,116.1 -230,136.1 -376.1,13.1"
         style="fill:#211c1d;fill-opacity:1;fill-rule:nonzero;stroke:none"
         id="path254" /><path
         d="m 49998.7,23593.8 c 165.9,57.2 265.9,157.4 220.5,292 -45.3,134.6 -247.3,129.7 -347.6,80.9 -122.2,-59.6 -221.1,-162.6 -155.8,-300.9 0,0 71.5,-144.9 282.9,-72"
         style="fill:#211c1d;fill-opacity:1;fill-rule:nonzero;stroke:none"
         id="path256" /><path
         d="m 52808.9,22277.9 c 244,-158.1 160.1,-408.9 473.1,-412.2 0,0 218.7,-14 311.3,243.9 74.8,208.5 409.2,356.6 224.4,641 -184.8,284.3 -451.8,20.2 -598.1,44 -146.4,23.9 -333.2,115.6 -493.6,-32.2 -98.6,-90.9 -140.6,-339.7 82.9,-484.5"
         style="fill:#211c1d;fill-opacity:1;fill-rule:nonzero;stroke:none"
         id="path258" /><path
         d="m 53893.2,22239.4 c 0,0 -216.7,-30.3 -95.5,-280.8 96.7,-199.8 264.8,-218 366.4,-114 101.6,104 -5.8,404 -270.9,394.8"
         style="fill:#211c1d;fill-opacity:1;fill-rule:nonzero;stroke:none"
         id="path260" /><path
         d="m 53494.6,21764.3 c -143.1,-127.2 -30.2,-495 180.9,-478.2 0,0 207.5,22 172.4,279.6 -25.5,187.3 -210.1,325.9 -353.3,198.6"
         style="fill:#211c1d;fill-opacity:1;fill-rule:nonzero;stroke:none"
         id="path262" /><path
         d="m 53159.2,21738.8 c -135.4,31.7 -260.6,-59.7 -281.9,-249.5 -21.3,-189.7 69.6,-265.1 193.5,-266.3 0,0 162.8,15.1 197.9,185.9 35.1,170.7 -15.8,308 -109.5,329.9"
         style="fill:#211c1d;fill-opacity:1;fill-rule:nonzero;stroke:none"
         id="path264" /><path
         d="m 52537.1,21630.8 c 0,0 151.6,-55.9 254.7,142.6 81,155.6 84.5,297.1 -41,363.5 -125.6,66.4 -268.7,-76.1 -307.8,-180.6 -47.7,-127.4 -48.5,-270.1 94.1,-325.5"
         style="fill:#211c1d;fill-opacity:1;fill-rule:nonzero;stroke:none"
         id="path266" /><path
         d="m 52653.2,12060.2 c 0,0 -182,122.3 -391.9,-53.9 -169.6,-142.4 -533.1,-102 -516.7,-440.7 16.4,-338.8 380.1,-245 494.5,-339.3 114.5,-94.4 229.6,-267.7 442.6,-220.8 131,28.8 292.6,222.6 172.5,460.2 -131.2,259.6 67.6,434 -201,594.5"
         style="fill:#211c1d;fill-opacity:1;fill-rule:nonzero;stroke:none"
         id="path268" /><path
         d="m 51936.9,12045.2 c 0,0 202.4,-82.9 223.9,194.5 17.2,221.3 -118.9,321.7 -259.1,283 -140.1,-38.7 -198.5,-351.9 35.2,-477.5"
         style="fill:#211c1d;fill-opacity:1;fill-rule:nonzero;stroke:none"
         id="path270" /><path
         d="m 52520.5,12254.8 c 187.8,37.9 275.4,412.5 84.6,504.3 0,0 -190.3,85.5 -289.7,-154.7 -72.4,-174.7 17.3,-387.4 205.1,-349.6"
         style="fill:#211c1d;fill-opacity:1;fill-rule:nonzero;stroke:none"
         id="path272" /><path
         d="m 52894.7,12448.1 c -116.3,-129.8 -141.5,-274 -71.6,-340.2 101,-95.5 255.2,-79.7 369.2,73.6 114,153.2 73.4,264.1 -33,327.5 0,0 -148.2,68.9 -264.6,-60.9"
         style="fill:#211c1d;fill-opacity:1;fill-rule:nonzero;stroke:none"
         id="path274" /><path
         d="m 53123,11893 c -148.3,-93.7 -222.6,-214.1 -147.6,-334.7 75,-120.6 270.4,-69.6 356.9,1 105.3,86 177.9,208.9 82.6,328.6 0,0 -102.8,124.6 -291.9,5.1"
         style="fill:#211c1d;fill-opacity:1;fill-rule:nonzero;stroke:none"
         id="path276" /><path
         d="m 50121.4,12549 c 49.5,124.6 -20.5,367.1 -284.6,400.8 -288.5,36.7 -321.5,299.1 -605,166.5 0,0 -203.2,-82.2 -174.9,-354.8 22.9,-220.3 -214.2,-498.7 75.5,-674.9 289.8,-176.2 415.9,177.6 558.2,219.5 142.2,42 350.3,40.3 430.8,242.9"
         style="fill:#211c1d;fill-opacity:1;fill-rule:nonzero;stroke:none"
         id="path278" /><path
         d="m 48807.2,12809.1 c -173.7,138.2 -333,81.7 -379.5,-56.1 -46.5,-137.7 180.2,-361.6 415.2,-238.3 0,0 182.1,121.1 -35.7,294.4"
         style="fill:#211c1d;fill-opacity:1;fill-rule:nonzero;stroke:none"
         id="path280" /><path
         d="m 48996.2,13115.5 c 73.9,176.7 -187.3,459.2 -370.3,352.6 0,0 -177.4,-109.8 -34.2,-326.7 104.2,-157.8 330.7,-202.7 404.5,-25.9"
         style="fill:#211c1d;fill-opacity:1;fill-rule:nonzero;stroke:none"
         id="path282" /><path
         d="m 49287.5,13283.8 c 135.7,30.1 209,166.7 145.9,347 -63,180.3 -177.6,208.8 -289.8,156.2 0,0 -140.1,-84.1 -97.8,-253.3 42.4,-169.1 147.7,-270.7 241.7,-249.9"
         style="fill:#211c1d;fill-opacity:1;fill-rule:nonzero;stroke:none"
         id="path284" /><path
         d="m 49828.1,13102 c 141.9,-5.4 209.1,185 199.1,296.2 -12.3,135.4 -73.4,264.4 -225.9,252.6 0,0 -160.8,-15.4 -167.8,-238.9 -5.5,-175.4 52.7,-304.5 194.6,-309.9"
         style="fill:#211c1d;fill-opacity:1;fill-rule:nonzero;stroke:none"
         id="path286" /><path
         d="m 42634.5,4072.9 c -277.9,85.7 -265.5,349.9 -567.5,267.8 0,0 -214.3,-46.1 -233.2,-319.5 -15.2,-221 -296.5,-454.6 -41.2,-677.9 255.3,-223.2 440.2,103.7 587.5,120.6 147.3,16.9 352,-20.4 466.1,165.5 70.1,114.2 42.7,365.1 -211.7,443.5"
         style="fill:#211c1d;fill-opacity:1;fill-rule:nonzero;stroke:none"
         id="path288" /><path
         d="m 41212.5,4120.7 c -69.5,-127.8 115.6,-387.2 368.2,-306 0,0 200.2,88.1 15.3,296.1 -147.4,166 -314.1,137.7 -383.5,9.9"
         style="fill:#211c1d;fill-opacity:1;fill-rule:nonzero;stroke:none"
         id="path290" /><path
         d="m 41834.8,4380.3 c 103,161.4 -105.9,484.5 -304.4,410.9 0,0 -193.6,-77.8 -89.7,-316 75.6,-173.3 291,-256.4 394.1,-94.9"
         style="fill:#211c1d;fill-opacity:1;fill-rule:nonzero;stroke:none"
         id="path292" /><path
         d="m 42095,5016.6 c 0,0 -152.4,-58.9 -139.7,-232.7 12.8,-173.9 99.1,-292.1 195.3,-287.7 138.8,6.4 234.4,128.4 203.2,316.8 -31.2,188.5 -139.2,236.2 -258.8,203.6"
         style="fill:#211c1d;fill-opacity:1;fill-rule:nonzero;stroke:none"
         id="path294" /><path
         d="m 42719.6,4769.6 c 0,0 -161,12.5 -206.2,-206.6 -35.5,-171.8 -0.3,-308.9 138.6,-338.6 138.9,-29.7 237.7,146.5 246.9,257.7 11.2,135.5 -26.9,273.1 -179.3,287.5"
         style="fill:#211c1d;fill-opacity:1;fill-rule:nonzero;stroke:none"
         id="path296" /><path
         d="m 44758.8,517 c -235.5,243.902 -447.3,-66.297 -595.5,-70.797 -148.2,-4.402 -349.1,50 -478.4,-125.601 -53,-72.102 -67.8,-208.301 1.5,-320.602 h 1032.7 c 87.7,165.301 219.3,331 39.7,517"
         style="fill:#211c1d;fill-opacity:1;fill-rule:nonzero;stroke:none"
         id="path298" /><path
         d="m 44930.3,29.5 c 0,0 -25.2,-8.6992 -51,-29.5 h 265 c -58.3,33.4023 -131.2,48.6016 -214,29.5"
         style="fill:#211c1d;fill-opacity:1;fill-rule:nonzero;stroke:none"
         id="path300" /><path
         d="m 51559.2,4702 c 0,0 -113.4,187.5 -378,116.2 -213.9,-57.6 -526.4,132.2 -654.3,-181.9 -127.9,-314.1 241.5,-382.4 305.5,-516.1 64,-133.8 95.4,-339.5 308.3,-386.7 130.9,-29.1 359.2,78.6 350.4,344.7 -9.6,290.6 244.2,365 68.1,623.8"
         style="fill:#211c1d;fill-opacity:1;fill-rule:nonzero;stroke:none"
         id="path302" /><path
         d="m 51188.4,5072.3 c 108.8,193.4 27.7,341.8 -115.7,365.8 -143.4,24 -328.4,-235.5 -169.3,-447.9 0,0 148.6,-160.5 285,82.1"
         style="fill:#211c1d;fill-opacity:1;fill-rule:nonzero;stroke:none"
         id="path304" /><path
         d="m 51520.9,4934.4 c 186.3,-44.8 423.6,258 289.3,421.7 0,0 -136.6,157.7 -328,-18.2 -139.2,-128 -147.5,-358.7 38.7,-403.5"
         style="fill:#211c1d;fill-opacity:1;fill-rule:nonzero;stroke:none"
         id="path306" /><path
         d="m 51941.8,4952 c -160.2,-68.7 -243.8,-188.9 -208.3,-278.4 51.3,-129.1 197.8,-179.8 365.8,-88.8 167.9,90.9 177.8,208.6 108,310.9 0,0 -105.3,125 -265.5,56.3"
         style="fill:#211c1d;fill-opacity:1;fill-rule:nonzero;stroke:none"
         id="path308" /><path
         d="m 51915,4352.4 c -174,-22.5 -292.2,-100.4 -275,-241.4 17.2,-141 215.9,-177 324.1,-149.4 131.7,33.6 249.4,114.5 213.4,263.2 0,0 -40.7,156.3 -262.5,127.6"
         style="fill:#211c1d;fill-opacity:1;fill-rule:nonzero;stroke:none"
         id="path310" /><path
         d="m 49615.2,7444.8 c 0,0 -199.7,90.4 -377.5,-118.2 -143.7,-168.5 -508.8,-188.9 -436.5,-520.2 72.3,-331.3 415.5,-178.6 543.9,-252.7 128.5,-74 270.8,-225.8 473.1,-144.3 124.3,50.1 251.6,268.1 93.8,482.5 -172.4,234.2 -5.3,439.1 -296.8,552.9"
         style="fill:#211c1d;fill-opacity:1;fill-rule:nonzero;stroke:none"
         id="path312" /><path
         d="m 48911.3,7311.3 c 0,0 213.4,-48.2 188.6,228.9 -19.8,221.1 -170.6,297.5 -302.4,236.1 -131.8,-61.3 -137.5,-379.9 113.8,-465"
         style="fill:#211c1d;fill-opacity:1;fill-rule:nonzero;stroke:none"
         id="path314" /><path
         d="m 49452,8126.1 c 0,0 -201.9,52.7 -260.2,-200.6 -42.3,-184.3 81.4,-379.2 260.3,-310.8 178.9,68.4 203.2,452.4 -0.1,511.4"
         style="fill:#211c1d;fill-opacity:1;fill-rule:nonzero;stroke:none"
         id="path316" /><path
         d="m 49774.9,7520 c 115.4,-77.5 264.8,-36.3 351.9,133.7 87,170 28.6,272.6 -86.9,317.6 0,0 -157.5,43.4 -250.8,-103.9 -93.2,-147.4 -94.1,-293.7 -14.2,-347.4"
         style="fill:#211c1d;fill-opacity:1;fill-rule:nonzero;stroke:none"
         id="path318" /><path
         d="m 50395,7401.2 c 0,0 -122.1,105.8 -288.7,-43.4 -130.7,-117 -184.1,-248.1 -90.1,-354.6 93.9,-106.5 278.2,-23.7 351.7,60.2 89.7,102.2 140.9,235.5 27.1,337.8"
         style="fill:#211c1d;fill-opacity:1;fill-rule:nonzero;stroke:none"
         id="path320" /><path
         d="m 47588.6,409.602 c -327.9,86.5 -348.2,-288.5 -472.7,-369.1997 -21.3,-13.8007 -45,-27 -69.5,-40.4023 h 773.9 c -5.8,171.801 -5.2,349.801 -231.7,409.602"
         style="fill:#211c1d;fill-opacity:1;fill-rule:nonzero;stroke:none"
         id="path322" /><path
         d="m 47987.9,81.6016 c 0,0 -28.6,-34.4024 -36.2,-81.6016 h 499.4 c -28.9,134.902 -285.6,254.301 -463.2,81.6016"
         style="fill:#211c1d;fill-opacity:1;fill-rule:nonzero;stroke:none"
         id="path324" /><path
         d="m 43858.6,27860.8 c 269.7,-108.8 235.1,-370.9 542.9,-314.6 0,0 217.4,28 259.2,298.8 8,52 31.1,103.5 58.4,155 h -1032.7 c 34.6,-56 90,-106.1 172.2,-139.2"
         style="fill:#211c1d;fill-opacity:1;fill-rule:nonzero;stroke:none"
         id="path326" /><path
         d="m 44890.1,27735.7 c 133,-177.8 301.5,-163.6 381.4,-42.1 54.3,82.6 -3.5,235.6 -127.2,306.4 h -265 c -47.9,-38.7 -97.6,-119.4 10.8,-264.3"
         style="fill:#211c1d;fill-opacity:1;fill-rule:nonzero;stroke:none"
         id="path328" /><path
         d="m 44898.3,27052.2 c 0,0 199.5,61.2 116,307.3 -60.8,179.1 -268.4,280 -384.7,127.8 -116.3,-152.2 64.7,-491.7 268.7,-435.1"
         style="fill:#211c1d;fill-opacity:1;fill-rule:nonzero;stroke:none"
         id="path330" /><path
         d="m 44316.7,26875.1 c 0,0 156.9,45.8 158.8,220.1 2,174.4 -74.2,299.4 -170.3,303.1 -138.9,5.3 -244.5,-108.2 -229.2,-298.6 15.3,-190.4 118.9,-247 240.7,-224.6"
         style="fill:#211c1d;fill-opacity:1;fill-rule:nonzero;stroke:none"
         id="path332" /><path
         d="m 43715.1,27173.7 c 0,0 159.4,-25.9 222.9,188.5 49.8,168.2 26.3,307.8 -109.6,349.1 -135.9,41.3 -249.2,-125.9 -267.7,-236 -22.6,-134.1 3.9,-274.4 154.4,-301.6"
         style="fill:#211c1d;fill-opacity:1;fill-rule:nonzero;stroke:none"
         id="path334" /><path
         d="m 46772,27685 c -12.1,-133.5 124,-346.1 386.8,-303.2 287,46.8 393.3,-195.4 627.3,12.4 0,0 171.5,136.5 66.8,389.8 -26.1,63.3 -30,139.1 -32.6,216 h -773.9 c -118.3,-64.7 -258.2,-135.1 -274.4,-315"
         style="fill:#211c1d;fill-opacity:1;fill-rule:nonzero;stroke:none"
         id="path336" /><path
         d="m 48105.8,27809.4 c 205.8,-83.1 342.6,16.4 348,161.7 0.3,9.6 -0.7,19.3 -2.7,28.9 h -499.4 c -9.1,-57.3 12.7,-133.5 154.1,-190.6"
         style="fill:#211c1d;fill-opacity:1;fill-rule:nonzero;stroke:none"
         id="path338" /><path
         d="m 48406.9,27552.1 c -144.7,121.6 -374.6,100.3 -395.2,-90.1 -20.5,-190.5 310.2,-387 455.3,-232.8 0,0 138.9,155.7 -60.1,322.9"
         style="fill:#211c1d;fill-opacity:1;fill-rule:nonzero;stroke:none"
         id="path340" /><path
         d="m 47780.4,27217.7 c -121.6,-67.4 -153,-219.2 -41.2,-374.1 111.7,-154.9 229.6,-149.7 322.2,-67.3 0,0 110.4,120.4 21.7,270.5 -88.7,150.1 -218.6,217.6 -302.7,170.9"
         style="fill:#211c1d;fill-opacity:1;fill-rule:nonzero;stroke:none"
         id="path342" /><path
         d="m 47392.1,26719.8 c 0,0 149.8,60.5 93,276.8 -44.7,169.6 -137.1,276.8 -274.7,241.7 -137.6,-35.1 -147.9,-236.9 -106.6,-340.6 50.2,-126.3 145.5,-232.6 288.3,-177.9"
         style="fill:#211c1d;fill-opacity:1;fill-rule:nonzero;stroke:none"
         id="path344" /><path
         d="m 44658.5,6401.2 c 0,0 -183.3,120.2 -391.2,-58.4 -168.1,-144.2 -531.9,-107.9 -511.7,-446.4 20.2,-338.6 382.8,-240.7 498.3,-333.8 115.4,-93 232.5,-265 445,-215.7 130.6,30.2 290,225.9 167.3,462.1 -134.1,258.1 62.7,434.7 -207.7,592.2"
         style="fill:#211c1d;fill-opacity:1;fill-rule:nonzero;stroke:none"
         id="path346" /><path
         d="m 43901.9,6855.2 c -139.7,-40.2 -194.6,-354.1 40.6,-477.1 0,0 203.3,-80.6 221.7,197.1 14.6,221.4 -122.6,320.3 -262.3,280"
         style="fill:#211c1d;fill-opacity:1;fill-rule:nonzero;stroke:none"
         id="path348" /><path
         d="m 44314.6,6941.6 c -70.4,-175.5 21.7,-387.2 209,-347.3 187.4,39.9 270.8,415.5 79,505.2 0,0 -191.3,83.3 -288,-157.9"
         style="fill:#211c1d;fill-opacity:1;fill-rule:nonzero;stroke:none"
         id="path350" /><path
         d="m 45196.2,6528.5 c 112.3,154.5 70.4,264.9 -36.7,327.1 0,0 -148.9,67.3 -263.8,-63.8 -114.9,-131.2 -138.4,-275.6 -67.8,-341 102,-94.4 256,-76.8 368.3,77.7"
         style="fill:#211c1d;fill-opacity:1;fill-rule:nonzero;stroke:none"
         id="path352" /><path
         d="m 45130.2,6239.3 c -147.2,-95.4 -220.2,-216.7 -143.9,-336.4 76.4,-119.7 271.3,-66.5 356.9,5.1 104.3,87.1 175.6,210.9 78.9,329.5 0,0 -104.2,123.4 -291.9,1.8"
         style="fill:#211c1d;fill-opacity:1;fill-rule:nonzero;stroke:none"
         id="path354" /><path
         d="m 40904.1,22677.1 c -252.8,143.7 -183.6,399 -496.2,384.2 0,0 -219.2,1.2 -296.7,-261.7 -62.6,-212.4 -387.8,-379.7 -186.8,-652.9 201,-273.1 452.2,6.1 599.7,-9.2 147.5,-15.3 339.3,-96 490.8,60.8 93.2,96.4 120.7,347.3 -110.8,478.8"
         style="fill:#211c1d;fill-opacity:1;fill-rule:nonzero;stroke:none"
         id="path356" /><path
         d="m 39819.4,22652.7 c 0,0 214.5,42.8 79,285.9 -108.1,193.8 -276.9,202.2 -372.3,92.5 -95.5,-109.7 29.1,-403 293.3,-378.4"
         style="fill:#211c1d;fill-opacity:1;fill-rule:nonzero;stroke:none"
         id="path358" /><path
         d="m 40189.7,23150.1 c 135.6,135.3 1.4,495.9 -208.3,466.9 0,0 -205.9,-34 -155.9,-289.1 36.3,-185.6 228.7,-313.2 364.2,-177.8"
         style="fill:#211c1d;fill-opacity:1;fill-rule:nonzero;stroke:none"
         id="path360" /><path
         d="m 40523.1,23195 c 136.9,-23.8 256.7,74.7 266.9,265.4 10.3,190.7 -84.9,260.7 -208.6,254.7 0,0 -161.6,-24.5 -186.7,-197 -25.2,-172.6 33.6,-306.6 128.4,-323.1"
         style="fill:#211c1d;fill-opacity:1;fill-rule:nonzero;stroke:none"
         id="path362" /><path
         d="m 41137.9,23339 c 0,0 -154.6,46.9 -246.1,-157.2 -71.7,-160 -67,-301.5 62.1,-360.5 129.2,-59 263.8,91.6 296.8,198.2 40.2,129.9 32.7,272.4 -112.8,319.5"
         style="fill:#211c1d;fill-opacity:1;fill-rule:nonzero;stroke:none"
         id="path364" /><path
         d="m 43284.4,22643.6 c 0,0 -162.9,146.7 -395.5,1.7 -188,-117.1 -542.2,-26 -573.5,-363.6 -31.4,-337.7 341.8,-296 441.9,-405.5 100,-109.5 189.7,-297.3 407.1,-280.8 133.7,10.1 321,179.3 235.5,431.4 -93.4,275.4 127.9,420.1 -115.5,616.8"
         style="fill:#211c1d;fill-opacity:1;fill-rule:nonzero;stroke:none"
         id="path366" /><path
         d="m 42573.2,22729.5 c 0,0 188.7,-110.6 249,161.1 48.1,216.7 -72.5,335.2 -216.7,316.6 -144.2,-18.6 -246.1,-320.5 -32.3,-477.7"
         style="fill:#211c1d;fill-opacity:1;fill-rule:nonzero;stroke:none"
         id="path368" /><path
         d="m 43180.4,22855 c 191.2,11 330.7,369.6 154.7,487.4 0,0 -176.4,111.4 -308.6,-112.5 -96.2,-162.8 -37.3,-386 153.9,-374.9"
         style="fill:#211c1d;fill-opacity:1;fill-rule:nonzero;stroke:none"
         id="path370" /><path
         d="m 43835.2,22687.9 c 134.4,135.7 109.8,251.2 13.4,328.9 0,0 -137,89.1 -270.5,-23.1 -133.4,-112.2 -178.6,-251.4 -118.7,-326.7 86.5,-108.8 241.4,-114.8 375.8,20.9"
         style="fill:#211c1d;fill-opacity:1;fill-rule:nonzero;stroke:none"
         id="path372" /><path
         d="m 43886.4,22052.3 c 116.3,70.3 205.5,181.8 128,313.7 0,0 -84.3,137.8 -288.3,46.1 -160,-71.9 -250.5,-180.8 -193.2,-310.7 57.3,-129.9 258,-106.9 353.5,-49.1"
         style="fill:#211c1d;fill-opacity:1;fill-rule:nonzero;stroke:none"
         id="path374" /><path
         d="m 32838.9,10490.5 c 139.7,49.6 347.6,59.3 416.9,266.2 42.6,127.1 -40.6,365.3 -306.1,384.5 -290.1,20.8 -337.5,281 -613.3,133.1 0,0 -198.4,-93.2 -155.2,-363.8 35,-218.7 -186.5,-509.7 112.5,-669.8 298.9,-160 405.5,200.1 545.2,249.8"
         style="fill:#211c1d;fill-opacity:1;fill-rule:nonzero;stroke:none"
         id="path376" /><path
         d="m 31929.3,10944.3 c -181,128.4 -337,63.3 -375.9,-76.8 -38.9,-140.1 199.8,-351.2 427.7,-215.2 0,0 175.2,130.9 -51.8,292"
         style="fill:#211c1d;fill-opacity:1;fill-rule:nonzero;stroke:none"
         id="path378" /><path
         d="m 31712.2,11592.4 c 0,0 -171.2,-119.4 -16.2,-328.1 112.6,-151.8 341.2,-184.3 405.3,-3.8 64.1,180.5 -212.2,448.3 -389.1,331.9"
         style="fill:#211c1d;fill-opacity:1;fill-rule:nonzero;stroke:none"
         id="path380" /><path
         d="m 32382.9,11444.6 c 133.8,37.5 199.5,177.9 126.7,354.5 -72.9,176.5 -188.9,198.7 -298,140 0,0 -135.3,-91.6 -83.7,-258.2 51.5,-166.5 162.3,-262.2 255,-236.3"
         style="fill:#211c1d;fill-opacity:1;fill-rule:nonzero;stroke:none"
         id="path382" /><path
         d="m 32932.6,11292.7 c 142,2.3 198.7,196.2 182.6,306.7 -19.7,134.5 -87.8,260 -239.4,239.8 0,0 -159.7,-24.2 -154.5,-247.8 4.2,-175.4 69.3,-301.1 211.3,-298.7"
         style="fill:#211c1d;fill-opacity:1;fill-rule:nonzero;stroke:none"
         id="path384" /><path
         d="m 36307.9,19223.9 c 127.9,314.1 -241.5,382.4 -305.4,516.1 -64,133.8 -95.4,339.5 -308.3,386.8 -130.9,29.1 -359.2,-78.6 -350.4,-344.7 9.5,-290.6 -244.3,-364.9 -68.3,-623.7 0,0 113.4,-187.6 378,-116.3 213.9,57.6 526.4,-132.3 654.4,181.8"
         style="fill:#211c1d;fill-opacity:1;fill-rule:nonzero;stroke:none"
         id="path386" /><path
         d="m 35646.3,18788 c -108.9,-193.4 -27.8,-341.8 115.6,-365.8 143.4,-24 328.4,235.4 169.4,447.8 0,0 -148.6,160.5 -285,-82"
         style="fill:#211c1d;fill-opacity:1;fill-rule:nonzero;stroke:none"
         id="path388" /><path
         d="m 35313.7,18925.9 c -186.2,44.9 -423.6,-257.9 -289.3,-421.6 0,0 136.6,-157.7 328,18.1 139.2,128 147.6,358.7 -38.7,403.5"
         style="fill:#211c1d;fill-opacity:1;fill-rule:nonzero;stroke:none"
         id="path390" /><path
         d="m 34892.9,18908.4 c 160.2,68.7 243.8,188.9 208.3,278.3 -51.2,129.2 -197.8,179.9 -365.7,89 -168,-90.9 -177.9,-208.6 -108.2,-311 0,0 105.3,-125 265.6,-56.3"
         style="fill:#211c1d;fill-opacity:1;fill-rule:nonzero;stroke:none"
         id="path392" /><path
         d="m 34919.8,19508 c 174,22.4 292.2,100.4 275,241.3 -17.1,141 -215.9,177.1 -324,149.5 -131.8,-33.5 -249.4,-114.4 -213.5,-263.1 0,0 40.7,-156.3 262.5,-127.7"
         style="fill:#211c1d;fill-opacity:1;fill-rule:nonzero;stroke:none"
         id="path394" /><path
         d="m 38422.5,17827.5 c 147.3,165.4 512.8,177.8 447.7,510.7 -65.2,332.8 -411.5,187.5 -538.4,264.3 -126.8,76.8 -265.8,231.7 -469.8,154.5 -125.4,-47.4 -257.4,-262.5 -104.2,-480.3 167.3,-237.8 -4.3,-439.1 284.8,-559.2 0,0 197.6,-94.7 379.9,110"
         style="fill:#211c1d;fill-opacity:1;fill-rule:nonzero;stroke:none"
         id="path396" /><path
         d="m 38852.9,17368.4 c 133.1,58.5 145.6,376.9 -103.8,467.4 0,0 -212.2,52.8 -193.4,-224.8 14.9,-221.5 164.1,-301.1 297.2,-242.6"
         style="fill:#211c1d;fill-opacity:1;fill-rule:nonzero;stroke:none"
         id="path398" /><path
         d="m 38201.9,17544.1 c -180.3,-64.5 -212.9,-447.9 -10.9,-511.2 0,0 200.7,-57.1 264.4,194.9 46.3,183.3 -73.1,380.8 -253.5,316.3"
         style="fill:#211c1d;fill-opacity:1;fill-rule:nonzero;stroke:none"
         id="path400" /><path
         d="m 37606.6,17200.4 c 0,0 156.5,-46.9 252.9,98.4 96.4,145.3 100.5,291.6 21.8,347 -113.7,79.9 -264,42 -354.7,-126.1 -90.7,-168.1 -34.5,-271.9 80,-319.3"
         style="fill:#211c1d;fill-opacity:1;fill-rule:nonzero;stroke:none"
         id="path402" /><path
         d="m 37263.9,17778 c 0,0 119.7,-108.4 289.6,37.1 133.2,114.1 189.4,244.1 97.7,352.6 -91.6,108.5 -277.6,29.7 -353,-52.6 -91.8,-100.3 -145.9,-232.4 -34.3,-337.1"
         style="fill:#211c1d;fill-opacity:1;fill-rule:nonzero;stroke:none"
         id="path404" /><path
         d="m 29863.2,21135.8 c -216.2,194.5 -94,429 -402.5,481.5 0,0 -213.8,48.1 -345.8,-192.1 -106.6,-194.1 -460.1,-287.9 -322.2,-597.8 137.8,-309.8 443,-90.8 583.8,-137.4 140.8,-46.5 310.8,-166.4 492.5,-45.6 111.6,74.2 192.1,313.4 -5.8,491.4"
         style="fill:#211c1d;fill-opacity:1;fill-rule:nonzero;stroke:none"
         id="path406" /><path
         d="m 28798.4,21344.2 c 0,0 218.7,-4.1 138.4,262.3 -64.1,212.5 -227.3,256.8 -343.9,170.1 -116.7,-86.8 -57.8,-400 205.5,-432.4"
         style="fill:#211c1d;fill-opacity:1;fill-rule:nonzero;stroke:none"
         id="path408" /><path
         d="m 29266.6,21750.7 c 161.4,103.2 107.5,484.1 -103.6,500.7 0,0 -208.3,10.9 -214.1,-249 -4.2,-189.1 156.3,-354.9 317.7,-251.7"
         style="fill:#211c1d;fill-opacity:1;fill-rule:nonzero;stroke:none"
         id="path410" /><path
         d="m 29601.9,21723.2 c 128.7,-52.5 266.7,18.1 317.5,202.2 50.9,184 -27.1,272.7 -149.3,293.4 0,0 -163,10.6 -224.5,-152.5 -61.5,-163.1 -32.8,-306.7 56.3,-343.1"
         style="fill:#211c1d;fill-opacity:1;fill-rule:nonzero;stroke:none"
         id="path412" /><path
         d="m 30233.2,21732.3 c 0,0 -140.9,78.9 -274,-100.9 -104.3,-141 -130,-280.2 -16.5,-365.5 113.6,-85.2 277.3,33 332.4,130.1 67,118.3 90.2,259.2 -41.9,336.3"
         style="fill:#211c1d;fill-opacity:1;fill-rule:nonzero;stroke:none"
         id="path414" /><path
         d="m 20582.3,27729 c 123.2,-82.6 254.9,-243.6 462.3,-175.9 122,39.9 257,233.3 142.3,446.9 h -1127.3 c 59.5,-313.2 401.7,-190 522.7,-271"
         style="fill:#211c1d;fill-opacity:1;fill-rule:nonzero;stroke:none"
         id="path416" /><path
         d="m 20911.6,599.801 c 0,0 -193.1,103.601 -384.6,-92.5 -154.7,-158.5 -520.3,-154.199 -470.4,-489.6994 0.9,-6 1.9,-11.89847 3,-17.6016 h 1127.3 c -5,9.39844 -10.3,18.8008 -16.3,28.2031 -156.3,245.2969 24.3,438.4959 -259,571.5979"
         style="fill:#211c1d;fill-opacity:1;fill-rule:nonzero;stroke:none"
         id="path418" /><path
         d="m 20118.1,985.602 c -135.7,-52.399 -162.7,-369.899 82.3,-471.602 0,0 209.6,-62.5 203.5,215.699 -4.8,221.903 -150.2,308.301 -285.8,255.903"
         style="fill:#211c1d;fill-opacity:1;fill-rule:nonzero;stroke:none"
         id="path420" /><path
         d="m 20794.6,1290.5 c 0,0 -197.9,66.2 -273,-182.6 -54.7,-181.002 55.6,-383.798 238.7,-327.599 183.1,56.301 233.2,437.699 34.3,510.199"
         style="fill:#211c1d;fill-opacity:1;fill-rule:nonzero;stroke:none"
         id="path422" /><path
         d="m 21436.1,773.898 c 98.2,163.704 46.9,270.102 -65.3,322.602 0,0 -154.3,54 -257.2,-86.8 C 21010.7,869 20999.9,723 21076,664.102 c 109.9,-85 261.8,-54 360.1,109.796"
         style="fill:#211c1d;fill-opacity:1;fill-rule:nonzero;stroke:none"
         id="path424" /><path
         d="m 21395.8,480 c -138.3,-107.898 -200.4,-235.199 -113.8,-347.699 86.6,-112.6018 276,-42.3987 355,36.402 96.3,95.996 156.4,225.496 49.7,335.195 0,0 -114.6,113.704 -290.9,-23.898"
         style="fill:#211c1d;fill-opacity:1;fill-rule:nonzero;stroke:none"
         id="path426" /><path
         d="m 18717.8,1848.5 c -238.1,167 -145,414.6 -457.6,429.4 0,0 -218.1,22.1 -320.2,-232.3 -82.4,-205.6 -422,-341.3 -247.7,-632.3 174.2,-291 450.7,-36.8 596,-66 145.4,-29.2 328.7,-127.7 494.4,14.1 101.9,87.1 153,334.3 -64.9,487.1"
         style="fill:#211c1d;fill-opacity:1;fill-rule:nonzero;stroke:none"
         id="path428" /><path
         d="m 17741.3,2204.1 c -89.2,203.2 -256.5,227.6 -361.9,127.4 -105.3,-100.3 -9.1,-404 256.2,-404.5 0,0 217.6,22.3 105.7,277.1"
         style="fill:#211c1d;fill-opacity:1;fill-rule:nonzero;stroke:none"
         id="path430" /><path
         d="m 17705.6,2598.5 c 18.6,-188.1 198,-333.4 345.8,-211.5 147.7,121.9 48.4,493.6 -163.2,484.6 0,0 -208.2,-14.4 -182.6,-273.1"
         style="fill:#211c1d;fill-opacity:1;fill-rule:nonzero;stroke:none"
         id="path432" /><path
         d="m 18387.5,2400.2 c 134.1,-36.7 262.6,50 290.9,238.9 28.3,188.9 -59.8,267.5 -183.6,273.3 0,0 -163.2,-9.1 -204.5,-178.5 -41.4,-169.3 4.4,-308.3 97.2,-333.7"
         style="fill:#211c1d;fill-opacity:1;fill-rule:nonzero;stroke:none"
         id="path434" /><path
         d="m 19013.1,2485.3 c 0,0 -149.3,61.3 -259.7,-133.2 -86.6,-152.5 -95.4,-293.8 27.6,-364.8 123,-71 271.3,66.2 314.2,169.2 52.4,125.5 58.4,268.2 -82.1,328.8"
         style="fill:#211c1d;fill-opacity:1;fill-rule:nonzero;stroke:none"
         id="path436" /><path
         d="m 31892.7,22850.5 c 11.1,290.6 269.6,346.7 112.5,617.4 0,0 -99.8,195.1 -368.8,142.9 -217.4,-42.2 -515.6,169.4 -665.6,-134.7 -150,-304.2 213.5,-398.7 267.8,-536.6 54.3,-138 71,-345.4 280,-407.8 128.5,-38.3 363.8,52.8 374.1,318.8"
         style="fill:#211c1d;fill-opacity:1;fill-rule:nonzero;stroke:none"
         id="path438" /><path
         d="m 31661.8,23863.7 c 122.3,185.2 52,338.9 -89.3,373.1 -141.3,34.2 -344.3,-211.4 -200.8,-434.6 0,0 136.7,-170.7 290.1,61.5"
         style="fill:#211c1d;fill-opacity:1;fill-rule:nonzero;stroke:none"
         id="path440" /><path
         d="m 31983.6,23702.4 c 182.6,-58 440.9,227.1 318.7,399.9 0,0 -125,167.1 -328.5,5.3 -148,-117.7 -172.7,-347.2 9.8,-405.2"
         style="fill:#211c1d;fill-opacity:1;fill-rule:nonzero;stroke:none"
         id="path442" /><path
         d="m 32177,23427.1 c 41.9,-132.5 184.5,-193.4 358.5,-114.7 174,78.7 192.3,195.3 130,302.4 0,0 -96.1,132.2 -260.8,75.1 -164.8,-57.1 -256.7,-171 -227.7,-262.8"
         style="fill:#211c1d;fill-opacity:1;fill-rule:nonzero;stroke:none"
         id="path444" /><path
         d="m 32335,23093.8 c -175.1,-10 -298.6,-79.3 -291.5,-221.2 7.1,-141.8 202.8,-192 312.6,-172.2 133.8,24.1 257,96.4 231.7,247.3 0,0 -29.5,158.8 -252.8,146.1"
         style="fill:#211c1d;fill-opacity:1;fill-rule:nonzero;stroke:none"
         id="path446" /><path
         d="m 28932.2,6415.6 c -79,125.5 -133.8,326.2 -350.8,348.7 -133.3,13.8 -347.7,-119.3 -308.4,-382.6 42.9,-287.7 -200.7,-390.7 3.9,-627.5 0,0 134.2,-173.3 388.9,-72.1 205.8,81.8 538.1,-70.8 629.1,255.9 90.9,326.7 -283.8,352.1 -362.7,477.6"
         style="fill:#211c1d;fill-opacity:1;fill-rule:nonzero;stroke:none"
         id="path448" /><path
         d="m 28687.8,5428.9 c -85.9,-204.7 11.7,-342.7 156.9,-350.1 145.3,-7.4 299.2,271.6 116.8,464.3 0,0 -166,142.4 -273.7,-114.2"
         style="fill:#211c1d;fill-opacity:1;fill-rule:nonzero;stroke:none"
         id="path450" /><path
         d="m 28341.6,5527.7 c -190.1,23.1 -391.1,-304.9 -238.9,-452.1 0,0 153.8,-141 323.7,55.7 123.6,143.1 105.4,373.2 -84.8,396.4"
         style="fill:#211c1d;fill-opacity:1;fill-rule:nonzero;stroke:none"
         id="path452" /><path
         d="m 27925.6,5461.9 c 151.3,86.7 220.5,215.6 174.9,300.4 -65.7,122.5 -217.1,155.9 -373.5,46.3 -156.4,-109.6 -152.7,-227.6 -71.7,-321.3 0,0 119,-112.1 270.3,-25.4"
         style="fill:#211c1d;fill-opacity:1;fill-rule:nonzero;stroke:none"
         id="path454" /><path
         d="m 27883.4,6060.6 c 170.3,42.3 278.7,133.3 245.4,271.4 -33.2,138 -234.8,151 -339.1,111.2 -127,-48.5 -234.6,-142.4 -181.8,-286 0,0 58.5,-150.5 275.5,-96.6"
         style="fill:#211c1d;fill-opacity:1;fill-rule:nonzero;stroke:none"
         id="path456" /><path
         d="m 18307.6,13101.2 c -56.7,137.1 -76.9,344.2 -287,402.9 -129.1,36.1 -362.8,-59.1 -368.5,-325.2 -6.1,-290.8 -263.6,-351.3 -101.8,-619.2 0,0 103.1,-193.4 371.2,-136.6 216.6,46 518.4,-160.5 663.2,146.2 144.7,306.8 -220.4,394.9 -277.1,531.9"
         style="fill:#211c1d;fill-opacity:1;fill-rule:nonzero;stroke:none"
         id="path458" /><path
         d="m 17996.2,11798.3 c 141.9,-31.7 340.6,217.3 193.3,438 0,0 -139.7,168.3 -289,-66.5 -119.1,-187.2 -46.2,-339.8 95.7,-371.5"
         style="fill:#211c1d;fill-opacity:1;fill-rule:nonzero;stroke:none"
         id="path460" /><path
         d="m 17592.7,11920.5 c 145.9,120.3 166.7,350.2 -16.8,405 -183.5,54.9 -436.9,-234.6 -311.7,-405.3 0,0 127.9,-164.9 328.5,0.3"
         style="fill:#211c1d;fill-opacity:1;fill-rule:nonzero;stroke:none"
         id="path462" /><path
         d="m 17377.8,12597.4 c -44.2,131.8 -187.8,190.3 -360.4,108.6 -172.7,-81.7 -188.9,-198.6 -124.8,-304.7 0,0 98.4,-130.4 262.1,-70.5 163.7,59.9 253.7,175.4 223.1,266.6"
         style="fill:#211c1d;fill-opacity:1;fill-rule:nonzero;stroke:none"
         id="path464" /><path
         d="m 17214,12928 c 175,13.1 297.2,84.5 287.7,226.2 -9.6,141.7 -206.1,188.4 -315.6,166.7 -133.3,-26.4 -255.2,-100.8 -227.3,-251.2 0,0 32.2,-158.3 255.2,-141.7"
         style="fill:#211c1d;fill-opacity:1;fill-rule:nonzero;stroke:none"
         id="path466" /><path
         d="m 21471.5,20700.6 c 278.1,85 416,-140.6 620,96.7 0,0 151.5,158.4 13.7,395.3 -111.4,191.5 -9.6,542.7 -346.1,584.3 -336.6,41.6 -306.3,-332.8 -418.7,-429.4 -112.5,-96.7 -302.9,-180.6 -293,-398.5 6.1,-133.9 169.5,-326.2 424.1,-248.4"
         style="fill:#211c1d;fill-opacity:1;fill-rule:nonzero;stroke:none"
         id="path468" /><path
         d="m 22352.4,21251.8 c 215.1,-54.6 337.2,62.3 323,207.1 -14.2,144.7 -312.9,255.6 -476.5,46.7 0,0 -116.2,-185.3 153.5,-253.8"
         style="fill:#211c1d;fill-opacity:1;fill-rule:nonzero;stroke:none"
         id="path470" /><path
         d="m 22685.4,21037.4 c -159.8,101 -384.7,48.9 -379.5,-142.5 5.3,-191.5 359.4,-341.8 482.5,-169.5 0,0 116.7,173 -103,312"
         style="fill:#211c1d;fill-opacity:1;fill-rule:nonzero;stroke:none"
         id="path472" /><path
         d="m 22447.5,20222.1 c 0,0 93.1,134.2 -15,271 -108,136.8 -245.8,186.2 -323,128.6 -111.3,-83.2 -122,-237.8 9.6,-376.3 131.5,-138.5 247.7,-117.3 328.4,-23.3"
         style="fill:#211c1d;fill-opacity:1;fill-rule:nonzero;stroke:none"
         id="path474" /><path
         d="m 21791.9,20076.1 c 0,0 140.2,80 54.8,286.7 -67.1,162.1 -173.1,255.9 -304.7,202.6 -131.6,-53.4 -114.6,-254.6 -59.8,-351.9 66.7,-118.4 175.5,-210.9 309.7,-137.4"
         style="fill:#211c1d;fill-opacity:1;fill-rule:nonzero;stroke:none"
         id="path476" /><path
         d="m 20408.8,18349.5 c 265.2,-119.5 220.1,-380.1 530,-336.1 0,0 218.3,19.2 270.9,288.2 42.5,217.3 350.6,414.3 125,667.5 -225.6,253.2 -449.6,-48.3 -597.9,-46.8 -148.3,1.4 -346.8,63.9 -483,-106.4 -83.8,-104.7 -87.7,-357.1 155,-466.4"
         style="fill:#211c1d;fill-opacity:1;fill-rule:nonzero;stroke:none"
         id="path478" /><path
         d="m 21434.6,18183.1 c 125.7,-182.9 294.6,-175.5 379.4,-57.3 84.7,118.2 -66.7,398.5 -327.5,349.3 0,0 -209.5,-62.6 -51.9,-292"
         style="fill:#211c1d;fill-opacity:1;fill-rule:nonzero;stroke:none"
         id="path480" /><path
         d="m 21164.3,17945.4 c -122.3,-147.5 44.9,-493.9 251.1,-445.5 0,0 201.8,53.1 128.2,302.4 -53.6,181.4 -257,290.5 -379.3,143.1"
         style="fill:#211c1d;fill-opacity:1;fill-rule:nonzero;stroke:none"
         id="path482" /><path
         d="m 20827.1,17346.2 c 0,0 158.6,39.5 167.5,213.6 9,174.1 -62.1,302.1 -158,309.7 -138.6,10.9 -248.6,-98.4 -241,-289.2 7.6,-190.9 108.9,-251.6 231.5,-234.1"
         style="fill:#211c1d;fill-opacity:1;fill-rule:nonzero;stroke:none"
         id="path484" /><path
         d="m 20238,17668.7 c 0,0 158.2,-32.3 230.2,179.4 56.5,166.1 38.6,306.6 -95.5,353.2 -134.1,46.7 -254.1,-115.8 -277,-225.1 -27.8,-133 -7.1,-274.3 142.3,-307.5"
         style="fill:#211c1d;fill-opacity:1;fill-rule:nonzero;stroke:none"
         id="path486" /><path
         d="m 26052.2,15266.5 c 146.9,-20 336.1,-106.6 492.5,45.4 96.1,93.4 131.4,343.3 -95.8,482.1 -248.2,151.5 -171.1,404.5 -484,399.4 0,0 -219,8.1 -304.7,-252.2 -69.2,-210.4 -399.5,-367.4 -207.1,-646.7 192.3,-279.3 452.1,-8.1 599.1,-28"
         style="fill:#211c1d;fill-opacity:1;fill-rule:nonzero;stroke:none"
         id="path488" /><path
         d="m 25451.8,16086.8 c -101.9,197.1 -270.4,210.8 -369.2,104.1 -98.8,-106.7 16.5,-403.7 281.4,-387.4 0,0 215.7,36.1 87.8,283.3"
         style="fill:#211c1d;fill-opacity:1;fill-rule:nonzero;stroke:none"
         id="path490" /><path
         d="m 25556,16762.3 c 0,0 -206.8,-27.6 -164.9,-284.1 30.6,-186.6 218.8,-320.2 358.5,-189.2 139.7,131.1 17,495.7 -193.6,473.3"
         style="fill:#211c1d;fill-opacity:1;fill-rule:nonzero;stroke:none"
         id="path492" /><path
         d="m 26084.3,16323.5 c 136.1,-28.1 258.9,66.6 275.1,256.9 16.2,190.3 -76.7,263.2 -200.6,261.1 0,0 -162.3,-19.4 -192.8,-191.1 -30.5,-171.6 24,-307.5 118.3,-326.9"
         style="fill:#211c1d;fill-opacity:1;fill-rule:nonzero;stroke:none"
         id="path494" /><path
         d="m 26703.2,16448.2 c 0,0 -153,51.7 -250.8,-149.4 -76.7,-157.8 -76.5,-299.3 50.8,-362.3 127.3,-63.1 266.5,83.3 302.8,188.8 44.3,128.6 41.3,271.3 -102.8,322.9"
         style="fill:#211c1d;fill-opacity:1;fill-rule:nonzero;stroke:none"
         id="path496" /><path
         d="m 13921.9,17047.6 c -288.1,-40.2 -388.8,204.3 -627.6,1.9 0,0 -174.5,-132.6 -75.6,-388.2 79.8,-206.6 -75.9,-537.4 249.9,-631.4 325.9,-94 354.8,280.5 481,358.2 126.3,77.8 327.5,130.8 352,347.5 15.1,133.2 -116.1,348.8 -379.7,312"
         style="fill:#211c1d;fill-opacity:1;fill-rule:nonzero;stroke:none"
         id="path498" /><path
         d="m 12965.3,16641.7 c -203.9,87.8 -342.9,-8.5 -351.6,-153.7 -8.7,-145.1 268.8,-301.6 463.2,-121 0,0 143.9,164.6 -111.6,274.7"
         style="fill:#211c1d;fill-opacity:1;fill-rule:nonzero;stroke:none"
         id="path500" /><path
         d="m 13067.3,16986.9 c 24.9,189.9 -301.3,394 -449.9,243.2 0,0 -142.4,-152.5 52.7,-324.3 142,-124.9 372.2,-108.8 397.2,81.1"
         style="fill:#211c1d;fill-opacity:1;fill-rule:nonzero;stroke:none"
         id="path502" /><path
         d="m 13304.1,17225.8 c 123.1,64.6 157.9,215.7 49.8,373.1 -108.1,157.4 -226.2,154.9 -320.6,74.7 0,0 -113.2,-117.9 -27.9,-270 85.2,-152.1 213.5,-222.5 298.7,-177.8"
         style="fill:#211c1d;fill-opacity:1;fill-rule:nonzero;stroke:none"
         id="path504" /><path
         d="m 13703.6,17714.7 c 0,0 -151.1,-57 -99.2,-274.5 40.7,-170.7 130.7,-280 269.1,-248 138.3,32 153.2,233.4 114.4,338.1 -47.3,127.4 -140.2,235.9 -284.3,184.4"
         style="fill:#211c1d;fill-opacity:1;fill-rule:nonzero;stroke:none"
         id="path506" /><path
         d="m 10477.5,16241.1 c 172.2,-139.2 202,-503.7 531.4,-422.8 329.3,81 167.7,420 238.4,550.4 70.7,130.3 218.7,276.5 132,476.6 -53.4,123 -274.5,244.6 -484.8,81.2 -229.6,-178.4 -438.8,-16.6 -544.9,-311.1 0,0 -85.2,-201.9 127.9,-374.3"
         style="fill:#211c1d;fill-opacity:1;fill-rule:nonzero;stroke:none"
         id="path508" /><path
         d="m 10039.4,15789.4 c 64.8,-130.2 383.4,-127.5 461.9,125.9 0,0 42.7,214.5 -233.7,182.5 -220.5,-25.5 -293.01,-178.2 -228.2,-308.4"
         style="fill:#211c1d;fill-opacity:1;fill-rule:nonzero;stroke:none"
         id="path510" /><path
         d="m 10183.9,16448 c -73.1,177 -457.51,191.4 -511.18,-13.5 0,0 -47.46,-203.2 207.3,-254.8 185.28,-37.5 376.98,91.2 303.88,268.3"
         style="fill:#211c1d;fill-opacity:1;fill-rule:nonzero;stroke:none"
         id="path512" /><path
         d="m 10127.4,17121.4 c -172.25,82.6 -273.31,21.5 -315.22,-95.1 0,0 -39.31,-158.6 110.39,-248 149.73,-89.3 296.03,-86.4 347.63,-5.2 74.4,117.4 29.4,265.7 -142.8,348.3"
         style="fill:#211c1d;fill-opacity:1;fill-rule:nonzero;stroke:none"
         id="path514" /><path
         d="m 10780.5,17027.8 c 104,96.7 16.5,278.7 -69.3,350.1 -104.6,86.9 -239.1,134.6 -338.4,18.2 0,0 -102.5,-124.7 50.9,-287.5 120.3,-127.6 252.8,-177.5 356.8,-80.8"
         style="fill:#211c1d;fill-opacity:1;fill-rule:nonzero;stroke:none"
         id="path516" /><path
         d="m 473.406,16413.2 c 98.957,90.4 141.961,339.1 -80.902,484.8 -220.32,144 -171.691,362.8 -392.50009375,406.5 v -925.3 C 142.961,16350.5 319.746,16272.8 473.406,16413.2"
         style="fill:#211c1d;fill-opacity:1;fill-rule:nonzero;stroke:none"
         id="path518" /><path
         d="m 327.227,17686.8 c 22.05,189.7 -68.567,265.4 -192.461,267.1 0,0 -75.3207,-6.7 -134.76209375,-64.7 V 17460 C 13.3672,17449.7 28.2031,17442.3 44.3633,17438.5 c 135.1877,-32.3 260.8127,58.6 282.8637,248.3"
         style="fill:#211c1d;fill-opacity:1;fill-rule:nonzero;stroke:none"
         id="path520" /><path
         d="m 666.84,17544.1 c 0,0 -151.332,56.4 -255.293,-141.6 -81.543,-155.4 -85.649,-296.9 39.625,-363.8 125.273,-66.9 268.965,75.1 308.5,179.5 48.18,127.1 49.551,269.9 -92.832,325.9"
         style="fill:#211c1d;fill-opacity:1;fill-rule:nonzero;stroke:none"
         id="path522" /><path
         d="m 2700.12,18507.1 c 131.31,27 295.63,218.6 178.84,457.8 -127.55,261.4 73.67,433 -192.73,597.2 0,0 -180.21,124.8 -392.57,-48.5 -171.61,-140 -534.45,-94.5 -522.77,-433.4 11.68,-338.9 376.66,-250.3 489.75,-346.2 113.09,-95.9 225.83,-270.8 439.48,-226.9"
         style="fill:#211c1d;fill-opacity:1;fill-rule:nonzero;stroke:none"
         id="path524" /><path
         d="m 1941.33,20035.1 c -140.7,-36.8 -203.43,-349.2 28.54,-478 0,0 201.2,-85.7 226.57,191.4 20.23,221 -114.41,323.3 -255.11,286.6"
         style="fill:#211c1d;fill-opacity:1;fill-rule:nonzero;stroke:none"
         id="path526" /><path
         d="m 2356.04,20111 c -74.75,-173.7 11.96,-387.6 200.24,-352.4 188.28,35.2 281.14,408.5 91.66,503 0,0 -189.15,88.2 -291.9,-150.6"
         style="fill:#211c1d;fill-opacity:1;fill-rule:nonzero;stroke:none"
         id="path528" /><path
         d="m 2856.85,19607.4 c 99.59,-96.9 254.03,-83.2 370.15,68.4 116.12,151.7 77.07,263.1 -28.46,328 0,0 -147.2,71 -265.35,-57.2 -118.15,-128.2 -145.29,-272 -76.34,-339.2"
         style="fill:#211c1d;fill-opacity:1;fill-rule:nonzero;stroke:none"
         id="path530" /><path
         d="m 3001.46,19055.7 c 73.32,-121.6 269.45,-73.3 356.86,-3.9 106.51,84.5 180.83,206.4 87.21,327.4 0,0 -101.06,126 -291.78,9.2 -149.6,-91.6 -225.62,-211 -152.29,-332.7"
         style="fill:#211c1d;fill-opacity:1;fill-rule:nonzero;stroke:none"
         id="path532" /><path
         d="m 55608.7,17069.4 c -75.6,-208.1 -410.5,-354.9 -226.9,-640 183.7,-285.1 451.7,-22 597.9,-46.5 6.7,-1.1 13.5,-2.4 20.3,-3.7 v 925.3 c -23.1,4.5 -49.2,7.2 -78.9,7.6 0,0 -218.7,14.9 -312.4,-242.7"
         style="fill:#211c1d;fill-opacity:1;fill-rule:nonzero;stroke:none"
         id="path534" /><path
         d="m 55308.4,16940.9 c 0,0 216.7,29.4 96.6,280.4 -95.9,200.2 -263.9,219 -365.9,115.4 -102.1,-103.6 4.1,-404 269.3,-395.8"
         style="fill:#211c1d;fill-opacity:1;fill-rule:nonzero;stroke:none"
         id="path536" /><path
         d="m 55708.8,17414.3 c 143.7,126.7 32.2,494.9 -179,479 0,0 -207.5,-21.2 -173.5,-278.9 24.8,-187.5 208.8,-326.8 352.5,-200.1"
         style="fill:#211c1d;fill-opacity:1;fill-rule:nonzero;stroke:none"
         id="path538" /><path
         d="m 55936.2,17768.9 c -29.6,-141.2 -0.2,-259.6 63.8,-308.9 v 429.2 c -27.9,-27.3 -52.4,-65.8 -63.8,-120.3"
         style="fill:#211c1d;fill-opacity:1;fill-rule:nonzero;stroke:none"
         id="path540" /><path
         d="m 3263.94,12332.8 c -229.69,249.5 -448.8,-55.5 -597.08,-56.4 -148.29,-1 -347.75,58.3 -481.23,-114.2 -82.04,-106.1 -81.9,-358.4 162.58,-463.9 267.03,-115.1 226.19,-376.4 535.29,-327.4 0,0 218.01,22.7 266.25,292.5 38.97,218 343.87,419.9 114.19,669.4"
         style="fill:#211c1d;fill-opacity:1;fill-rule:nonzero;stroke:none"
         id="path542" /><path
         d="m 3423.71,11841.4 c 0,0 -208.5,-66.1 -47.21,-292.8 128.65,-180.9 297.42,-170.7 380.24,-51.2 82.82,119.5 -73.13,397.4 -333.03,344"
         style="fill:#211c1d;fill-opacity:1;fill-rule:nonzero;stroke:none"
         id="path544" /><path
         d="m 3368.31,10865.1 c 0,0 200.9,56.4 123.3,304.5 -56.45,180.5 -261.62,286.3 -381.52,136.9 -119.9,-149.4 52.9,-493.1 258.22,-441.4"
         style="fill:#211c1d;fill-opacity:1;fill-rule:nonzero;stroke:none"
         id="path546" /><path
         d="m 2782.64,10702 c 0,0 157.92,42 164.03,216.3 6.1,174.2 -67.02,301 -163.06,307 -138.71,8.7 -246.95,-102.4 -236.25,-293 10.7,-190.7 112.92,-249.8 235.28,-230.3"
         style="fill:#211c1d;fill-opacity:1;fill-rule:nonzero;stroke:none"
         id="path548" /><path
         d="m 2415.67,11198 c 53.8,167 33.66,307.1 -101.21,351.6 -134.87,44.5 -252.17,-119.9 -273.29,-229.5 -25.74,-133.5 -2.68,-274.4 147.17,-305.2 0,0 158.75,-29.7 227.33,183.1"
         style="fill:#211c1d;fill-opacity:1;fill-rule:nonzero;stroke:none"
         id="path550" /><path
         d="m 5439.91,13539.8 c 0,0 153.05,156.9 17.59,395.1 -109.47,192.6 -4.2,542.8 -340.35,587.7 -336.15,44.9 -309.49,-329.7 -422.89,-425.3 -113.41,-95.5 -304.62,-177.6 -296.91,-395.5 4.74,-134 166.25,-327.9 421.61,-252.6 278.94,82.2 414.64,-144.7 620.95,90.6"
         style="fill:#211c1d;fill-opacity:1;fill-rule:nonzero;stroke:none"
         id="path552" /><path
         d="m 5705.24,13991.7 c 214.57,-56.8 337.83,59 325.05,203.8 -12.77,144.9 -310.37,258.8 -476.01,51.5 0,0 -118.06,-184.1 150.96,-255.3"
         style="fill:#211c1d;fill-opacity:1;fill-rule:nonzero;stroke:none"
         id="path554" /><path
         d="m 6136.05,13461 c 0,0 118.38,171.9 -99.94,313 -158.81,102.6 -384.2,52.7 -380.84,-138.8 3.36,-191.5 356.03,-345.2 480.78,-174.2"
         style="fill:#211c1d;fill-opacity:1;fill-rule:nonzero;stroke:none"
         id="path556" /><path
         d="m 5456.21,13364 c -112.17,-82.1 -124.38,-236.6 5.8,-376.4 130.17,-139.7 246.55,-119.8 328.15,-26.5 0,0 94.51,133.3 -12.23,271.1 -106.74,137.9 -244.05,188.6 -321.72,131.8"
         style="fill:#211c1d;fill-opacity:1;fill-rule:nonzero;stroke:none"
         id="path558" /><path
         d="m 4888.13,13313.3 c -132.14,-52.1 -117.15,-253.5 -63.3,-351.2 65.6,-119.1 173.44,-212.7 308.34,-140.6 0,0 141.05,78.7 57.64,286.2 -65.44,162.8 -170.54,257.6 -302.68,205.6"
         style="fill:#211c1d;fill-opacity:1;fill-rule:nonzero;stroke:none"
         id="path560" /><path
         d="m 15879,22591.7 c -242.3,160.8 -155.6,410.6 -468.5,417.5 0,0 -218.5,16.4 -314,-240.5 -77.2,-207.6 -413.1,-352 -231.5,-638.4 181.6,-286.4 451.5,-25.2 597.6,-50.7 146.1,-25.5 331.8,-119.3 493.8,26.7 99.6,89.7 144.4,338.1 -77.4,485.4"
         style="fill:#211c1d;fill-opacity:1;fill-rule:nonzero;stroke:none"
         id="path562" /><path
         d="m 14893.8,22922 c -94.4,200.9 -262.3,220.9 -365.1,118.1 -102.8,-102.9 1.3,-404.1 266.5,-397.8 0,0 216.9,27.9 98.6,279.7"
         style="fill:#211c1d;fill-opacity:1;fill-rule:nonzero;stroke:none"
         id="path564" /><path
         d="m 15199,23112.8 c 144.6,125.7 35.7,494.7 -175.5,480.3 0,0 -207.8,-19.7 -175.6,-277.7 23.5,-187.6 206.5,-328.2 351.1,-202.6"
         style="fill:#211c1d;fill-opacity:1;fill-rule:nonzero;stroke:none"
         id="path566" /><path
         d="m 15534.7,23134.6 c 135,-33.2 261.3,56.8 284.7,246.3 23.4,189.6 -66.7,265.9 -190.6,268.5 0,0 -162.9,-13.2 -199.9,-183.6 -37,-170.4 12.4,-308.2 105.8,-331.2"
         style="fill:#211c1d;fill-opacity:1;fill-rule:nonzero;stroke:none"
         id="path568" /><path
         d="m 16157.9,23235.8 c 0,0 -150.9,57.5 -256.2,-139.8 -82.7,-154.7 -87.8,-296.2 37,-364 124.8,-67.8 269.5,73.1 309.8,177.2 49,126.8 51.4,269.6 -90.6,326.6"
         style="fill:#211c1d;fill-opacity:1;fill-rule:nonzero;stroke:none"
         id="path570" /><path
         d="m 9943.8,27647 c 221,-189 104.6,-426.5 414.3,-471.3 0,0 215,-42.8 340.9,200.6 101.8,196.7 452.8,299.2 307.3,605.6 -3,6.3 -6,12.3 -9.1,18.1 H 9831.71 c -33.14,-105.4 -16.55,-242.9 112.09,-353"
         style="fill:#211c1d;fill-opacity:1;fill-rule:nonzero;stroke:none"
         id="path572" /><path
         d="m 11229.7,27038 c 114.5,89.6 47.8,401.2 -216.3,427.2 0,0 -218.7,-1.4 -131.8,-265.7 69.4,-210.8 233.6,-251.1 348.1,-161.5"
         style="fill:#211c1d;fill-opacity:1;fill-rule:nonzero;stroke:none"
         id="path574" /><path
         d="m 10671.4,26549.1 c 0,0 208.6,-5.6 207.9,254.3 -0.4,189.1 -165.1,350.9 -323.8,243.7 -158.8,-107.1 -95.5,-486.6 115.9,-498"
         style="fill:#211c1d;fill-opacity:1;fill-rule:nonzero;stroke:none"
         id="path576" /><path
         d="m 10063.7,26566.7 c 0,0 163.3,-6.6 220.7,158 57.5,164.6 25.2,307.4 -64.8,341.6 -129.9,49.3 -266.18,-24.7 -312.43,-210 -46.25,-185.3 33.89,-272 156.53,-289.6"
         style="fill:#211c1d;fill-opacity:1;fill-rule:nonzero;stroke:none"
         id="path578" /><path
         d="m 9588.72,27041.6 c 0,0 142.82,-75.4 271.37,107.6 100.82,143.5 123.08,283.3 7.44,365.8 -115.64,82.4 -276.38,-39.9 -329,-138.3 -64.12,-119.9 -83.82,-261.3 50.19,-335.1"
         style="fill:#211c1d;fill-opacity:1;fill-rule:nonzero;stroke:none"
         id="path580" /><path
         d="m 13353.9,27729.6 c 0,0 178.2,49.7 209.2,270.4 h -887.2 c 27.9,-15.2 59.6,-27.7 95.7,-36.5 282.4,-69.1 285.6,-333.6 582.3,-233.9"
         style="fill:#211c1d;fill-opacity:1;fill-rule:nonzero;stroke:none"
         id="path582" /><path
         d="m 14193.9,27999.7 c 0.1,0.1 0.1,0.2 0.1,0.3 h -396.2 c 4.1,-4.3 8.2,-8.7 12.6,-13.1 157,-156.9 321.7,-118.9 383.5,12.8"
         style="fill:#211c1d;fill-opacity:1;fill-rule:nonzero;stroke:none"
         id="path584" /><path
         d="m 13916.1,27311.6 c 0,0 188.7,89 70.9,320.7 -85.7,168.6 -305.6,238.8 -399,71.6 -93.4,-167.3 134.2,-477.5 328.1,-392.3"
         style="fill:#211c1d;fill-opacity:1;fill-rule:nonzero;stroke:none"
         id="path586" /><path
         d="m 13365.7,27053.3 c 0,0 148.7,67.7 125.8,240.5 -23,172.9 -116.2,285.8 -211.9,275.7 -138.2,-14.6 -226.5,-142 -184.2,-328.3 42.3,-186.2 152.9,-227.5 270.3,-187.9"
         style="fill:#211c1d;fill-opacity:1;fill-rule:nonzero;stroke:none"
         id="path588" /><path
         d="m 12727.6,27263 c 0,0 161.5,-2.9 193.7,218.4 25.3,173.6 -17.9,308.4 -158.3,329.8 -140.4,21.5 -228.7,-160.2 -231.3,-271.8 -3.1,-135.9 43,-271 195.9,-276.4"
         style="fill:#211c1d;fill-opacity:1;fill-rule:nonzero;stroke:none"
         id="path590" /><path
         d="m 10419.3,104.801 c -141.9,43 -314.9,158.601 -493.44,33.402 C 9885.9,110.199 9850.69,60.3008 9831.71,0 h 1165.49 c -148.6,279 -438.9,62.6016 -577.9,104.801"
         style="fill:#211c1d;fill-opacity:1;fill-rule:nonzero;stroke:none"
         id="path592" /><path
         d="M 13569,741.5 C 13301,949.301 13135.7,612 12989.6,586.5 12843.5,560.902 12637,586.102 12534.1,393.801 12479.6,292.102 12503.4,93.7031 12675.9,0 h 887.2 c 2.7,19.5 4.4,40.1992 4.6,62.4023 2.2,221.3987 269.3,471.1997 1.3,679.0977"
         style="fill:#211c1d;fill-opacity:1;fill-rule:nonzero;stroke:none"
         id="path594" /><path
         d="m 13808.3,283.5 c 0,0 -185.9,-95.398 -10.5,-283.5 h 396.2 c 61.3,131.699 -138.5,379.301 -385.7,283.5"
         style="fill:#211c1d;fill-opacity:1;fill-rule:nonzero;stroke:none"
         id="path596" /><path
         d="m 7502.16,23111.1 c -285.39,55.9 -300.91,319.9 -592.58,206.4 0,0 -208.23,-68.4 -198.12,-342.3 8.16,-221.3 -246.97,-483.3 30.42,-678.4 277.4,-195.1 426.8,149.5 571.51,181.8 144.71,32.4 352.2,16.8 446.04,213.7 57.68,121 4.01,367.6 -257.27,418.8"
         style="fill:#211c1d;fill-opacity:1;fill-rule:nonzero;stroke:none"
         id="path598" /><path
         d="m 6481.48,22743.1 c 0,0 189.76,108.8 -15.98,296.2 -164.09,149.4 -326.87,103.7 -382.44,-30.7 -55.58,-134.3 155.77,-372.8 398.42,-265.5"
         style="fill:#211c1d;fill-opacity:1;fill-rule:nonzero;stroke:none"
         id="path600" /><path
         d="m 6674.49,23332.4 c 85.48,171.4 -156.31,470.6 -345.98,376.5 0,0 -184.37,-97.7 -55.9,-323.7 93.45,-164.4 316.39,-224.2 401.88,-52.8"
         style="fill:#211c1d;fill-opacity:1;fill-rule:nonzero;stroke:none"
         id="path602" /><path
         d="m 6976.31,23481 c 137.39,20.9 219.62,152.4 168.7,336.5 -50.9,184 -163.33,220.1 -278.77,175.1 0,0 -145.41,-74.6 -114.41,-246.2 30.99,-171.5 129.35,-279.9 224.48,-265.4"
         style="fill:#211c1d;fill-opacity:1;fill-rule:nonzero;stroke:none"
         id="path604" /><path
         d="m 7503.59,23263.6 c 141.23,-14.9 220.99,170.7 218.38,282.2 -3.18,136 -55.6,268.8 -208.58,267.1 0,0 -161.44,-4.6 -183.3,-227.2 -17.15,-174.6 32.26,-307.3 173.5,-322.1"
         style="fill:#211c1d;fill-opacity:1;fill-rule:nonzero;stroke:none"
         id="path606" /><path
         d="m 9334.04,21308.9 c 138.95,-51.8 304.4,-178 490.42,-64.1 114.34,70 203.84,305.9 12.68,491.3 -208.76,202.5 -77.81,432.2 -384.16,496.2 0,0 -211.89,56.1 -352.76,-179 -113.83,-189.9 -470.54,-270.4 -344.4,-585.3 126.13,-314.8 439.27,-107.4 578.22,-159.1"
         style="fill:#211c1d;fill-opacity:1;fill-rule:nonzero;stroke:none"
         id="path608" /><path
         d="m 8929,22241.2 c -56.06,214.7 -217.44,265.1 -337.29,182.8 -119.86,-82.3 -72.73,-397.5 189.21,-439.8 0,0 218.37,-12.3 148.08,257"
         style="fill:#211c1d;fill-opacity:1;fill-rule:nonzero;stroke:none"
         id="path610" /><path
         d="m 9264.01,22372.9 c 165.12,97.1 125.61,479.8 -84.71,504.3 0,0 -207.84,18.6 -223.36,-240.9 -11.29,-188.7 142.95,-360.5 308.07,-263.4"
         style="fill:#211c1d;fill-opacity:1;fill-rule:nonzero;stroke:none"
         id="path612" /><path
         d="m 9784.74,22821.8 c 0,0 -162.56,16.7 -230.13,-144 -67.56,-160.7 -44.23,-305.2 43.43,-344.9 126.6,-57.3 267.2,8 324.89,190.1 57.7,182 -16.89,273.6 -138.19,298.8"
         style="fill:#211c1d;fill-opacity:1;fill-rule:nonzero;stroke:none"
         id="path614" /><path
         d="m 10229.2,22318.3 c 0,0 -137.8,84.1 -277.51,-90.5 -109.57,-137 -140.48,-275.2 -30.21,-364.7 110.32,-89.4 278.32,22.6 337.02,117.6 71.4,115.7 99.9,255.6 -29.3,337.6"
         style="fill:#211c1d;fill-opacity:1;fill-rule:nonzero;stroke:none"
         id="path616" /><path
         d="m 17497.5,23613.4 c 104.5,-105.2 201.9,-289.1 418.5,-263.6 133.1,15.6 313.2,192.5 217.3,440.8 -104.7,271.3 110.5,425.1 -140.9,611.5 0,0 -168.9,139.7 -395.3,-14.7 -182.9,-124.8 -540.6,-48.5 -557.9,-387.2 -17.4,-338.7 353.9,-281.5 458.3,-386.8"
         style="fill:#211c1d;fill-opacity:1;fill-rule:nonzero;stroke:none"
         id="path618" /><path
         d="m 17278.2,24458.4 c 0,0 193.1,-102.6 242.1,171.3 39.1,218.5 -86.3,331.9 -229.6,307.3 -143.4,-24.5 -232.6,-330.4 -12.5,-478.6"
         style="fill:#211c1d;fill-opacity:1;fill-rule:nonzero;stroke:none"
         id="path620" /><path
         d="m 17879.7,24609 c 190.6,18.9 315.1,383 134.4,493.4 0,0 -181,103.9 -303.8,-125.2 -89.3,-166.6 -21.2,-387.2 169.4,-368.2"
         style="fill:#211c1d;fill-opacity:1;fill-rule:nonzero;stroke:none"
         id="path622" /><path
         d="m 18540.9,24469.2 c 128.7,141.1 99.3,255.5 -0.3,329.2 0,0 -140.6,83.3 -269.3,-34.3 -128.7,-117.6 -168,-258.6 -105,-331.4 90.9,-105.1 245.9,-104.7 374.6,36.5"
         style="fill:#211c1d;fill-opacity:1;fill-rule:nonzero;stroke:none"
         id="path624" /><path
         d="m 18443.3,24189.1 c -156.9,-78.5 -242.8,-191 -180.2,-318.5 62.7,-127.4 262.2,-96 355.3,-34.4 113.3,75.1 197.8,190.2 114.9,318.8 0,0 -90,134.2 -290,34.1"
         style="fill:#211c1d;fill-opacity:1;fill-rule:nonzero;stroke:none"
         id="path626" /><path
         d="m 25620.5,25950.9 c 263.7,122.6 431.5,-81.8 600.7,181.5 0,0 128.1,177.8 -41.1,393.4 -136.7,174.2 -84.4,536.1 -423.5,530.8 -339.1,-5.3 -257.3,-371.9 -355.3,-483.2 -98.1,-111.2 -275,-220.6 -235.2,-435.1 24.5,-131.8 213,-299.7 454.4,-187.4"
         style="fill:#211c1d;fill-opacity:1;fill-rule:nonzero;stroke:none"
         id="path628" /><path
         d="m 26416.7,26618.5 c 220.7,-24.3 325.4,108.4 291.4,249.7 -34.1,141.4 -345.3,210 -478.4,-19.5 0,0 -89.5,-199.6 187,-230.2"
         style="fill:#211c1d;fill-opacity:1;fill-rule:nonzero;stroke:none"
         id="path630" /><path
         d="m 26420.1,26258.6 c 31.6,-188.9 403.2,-288.8 501.2,-101.1 0,0 91.7,187.4 -145.1,294.7 -172.3,78 -387.8,-4.7 -356.1,-193.6"
         style="fill:#211c1d;fill-opacity:1;fill-rule:nonzero;stroke:none"
         id="path632" /><path
         d="m 26653.2,25611.8 c 0,0 73.7,145.9 -52.2,266.4 -126,120.5 -269.3,150.4 -337.7,82.7 -98.8,-97.7 -88,-252.4 61.4,-371.4 149.4,-118.9 261.6,-82 328.5,22.3"
         style="fill:#211c1d;fill-opacity:1;fill-rule:nonzero;stroke:none"
         id="path634" /><path
         d="m 26024.1,25376.6 c 0,0 127.8,98.7 14.6,291.6 -88.7,151.3 -206.7,229.5 -329.7,158.5 -123,-71 -78.4,-268 -10.7,-356.7 82.5,-108.1 203,-184.7 325.8,-93.4"
         style="fill:#211c1d;fill-opacity:1;fill-rule:nonzero;stroke:none"
         id="path636" /><path
         d="m 27013,27846.8 c 49,-140 57.6,-347.9 264.1,-418.2 126.9,-43.2 365.6,38.7 386,304.2 9.2,119.4 58.8,197.4 103.7,267.2 h -893.1 c 60.8,-54.2 121.2,-101.6 139.3,-153.2"
         style="fill:#211c1d;fill-opacity:1;fill-rule:nonzero;stroke:none"
         id="path638" /><path
         d="m 28120.5,27565 c 134.6,18.9 260.4,86.4 241,238.1 0,0 -23.4,159.8 -247,155.7 -175.4,-3.2 -301.4,-67.7 -299.8,-209.7 1.7,-142 195.3,-199.7 305.8,-184.1"
         style="fill:#211c1d;fill-opacity:1;fill-rule:nonzero;stroke:none"
         id="path640" /><path
         d="m 27799.3,345.301 c 0,0 -92.2,198.898 -363,157 C 27217.4,468.5 26927.6,691.5 26766,393.301 26664.1,205.199 26769.6,92.6016 26873.7,0 h 893.1 c 64.1,99.6992 118.7,182.699 32.5,345.301"
         style="fill:#211c1d;fill-opacity:1;fill-rule:nonzero;stroke:none"
         id="path642" /><path
         d="m 27396.5,1130.4 c -139.9,39.5 -352.2,-198.099 -217.4,-426.599 0,0 130.1,-175.899 292.3,50.301 129.3,180.296 65,336.698 -74.9,376.298"
         style="fill:#211c1d;fill-opacity:1;fill-rule:nonzero;stroke:none"
         id="path644" /><path
         d="m 28120.6,967.902 c 0,0 -118.5,171.798 -328,17.899 -152.4,-111.903 -186,-340.301 -5.8,-405.301 180.1,-64.898 449.3,210 333.8,387.402"
         style="fill:#211c1d;fill-opacity:1;fill-rule:nonzero;stroke:none"
         id="path646" /><path
         d="m 28207,551.801 c -166.8,-50.699 -263,-161 -237.6,-253.801 36.8,-134 176.9,-200.3984 353.8,-128.398 176.9,71.898 199.7,187.8 141.6,297.199 0,0 -91,135.699 -257.8,85"
         style="fill:#211c1d;fill-opacity:1;fill-rule:nonzero;stroke:none"
         id="path648" /><path
         d="m 56000,363.898 c -37.3,-4.097 -79.2,-17.5 -128.4,-43.996 0,0 -176.3,-83.3 -159.7,-319.902 h 288.1 v 363.898"
         style="fill:#211c1d;fill-opacity:1;fill-rule:nonzero;stroke:none"
         id="path650" /><path
         d="m 55137.8,0 h 311.3 c -130.1,84.6016 -245.5,69.6016 -311.3,0"
         style="fill:#211c1d;fill-opacity:1;fill-rule:nonzero;stroke:none"
         id="path652" /><path
         d="m 55246.9,637 c 0,0 -171,-119.699 -15.7,-328.199 112.9,-151.602 341.5,-183.699 405.3,-3.098 63.8,180.695 -212.9,448 -389.6,331.297"
         style="fill:#211c1d;fill-opacity:1;fill-rule:nonzero;stroke:none"
         id="path654" /><path
         d="m 55745.7,984.5 c 0,0 -135.1,-91.898 -83.3,-258.297 51.8,-166.504 162.7,-262.004 255.4,-235.902 31.5,8.898 59.2,23.5 82.2,43 v 393 c -71.2,100.299 -165.1,106.299 -254.3,58.199"
         style="fill:#211c1d;fill-opacity:1;fill-rule:nonzero;stroke:none"
         id="path656" /></g></g></svg>
