<?xml version="1.0" encoding="UTF-8" standalone="no"?>
<svg
   xmlns:dc="http://purl.org/dc/elements/1.1/"
   xmlns:cc="http://creativecommons.org/ns#"
   xmlns:rdf="http://www.w3.org/1999/02/22-rdf-syntax-ns#"
   xmlns:svg="http://www.w3.org/2000/svg"
   xmlns="http://www.w3.org/2000/svg"
   xmlns:sodipodi="http://sodipodi.sourceforge.net/DTD/sodipodi-0.dtd"
   xmlns:inkscape="http://www.inkscape.org/namespaces/inkscape"
   version="1.1"
   id="svg2"
   xml:space="preserve"
   width="2666.6667"
   height="2666.6667"
   viewBox="0 0 2666.6667 2666.6667"
   sodipodi:docname="shutterstock_1518711302.eps"><metadata
     id="metadata8"><rdf:RDF><cc:Work
         rdf:about=""><dc:format>image/svg+xml</dc:format><dc:type
           rdf:resource="http://purl.org/dc/dcmitype/StillImage" /></cc:Work></rdf:RDF></metadata><defs
     id="defs6" /><sodipodi:namedview
     pagecolor="#ffffff"
     bordercolor="#666666"
     borderopacity="1"
     objecttolerance="10"
     gridtolerance="10"
     guidetolerance="10"
     inkscape:pageopacity="0"
     inkscape:pageshadow="2"
     inkscape:window-width="640"
     inkscape:window-height="480"
     id="namedview4" /><g
     id="g10"
     inkscape:groupmode="layer"
     inkscape:label="ink_ext_XXXXXX"
     transform="matrix(1.3333333,0,0,-1.3333333,0,2666.6667)"><g
       id="g12"
       transform="scale(0.1)"><path
         d="M 20000,0 H 0 V 20000 H 20000 V 0"
         style="fill:#ffffff;fill-opacity:1;fill-rule:nonzero;stroke:none"
         id="path14" /><path
         d="m 11177.1,12313.5 c 0,0 1121.9,2287 1682.9,2373.3 0,0 1111.1,-787.5 1132.7,-4218"
         style="fill:#100f0d;fill-opacity:1;fill-rule:nonzero;stroke:none"
         id="path16" /><path
         d="m 13992.7,10348.8 c -65.9,0 -119.6,53.2 -120,119.2 -11,1751.2 -312.7,2786.8 -563.9,3347.2 -198.8,443.4 -395.3,660.2 -477.7,738.3 -122.2,-53.7 -396.2,-277.4 -919.3,-1146.3 -344.1,-571.6 -624.2,-1140.9 -627,-1146.6 -29.1,-59.4 -101,-84 -160.5,-54.8 -59.5,29.2 -84.1,101.1 -54.9,160.6 2.8,5.7 286.8,583 636,1163.3 206.4,343 395.5,620.7 561.9,825.5 229.2,282.1 411.7,425.2 574.5,450.2 30.7,4.8 62.2,-2.7 87.6,-20.7 47.4,-33.6 1161.6,-862.8 1183.3,-4315.1 0.4,-66.3 -53,-120.4 -119.2,-120.8 -0.3,0 -0.5,0 -0.8,0"
         style="fill:#100f0d;fill-opacity:1;fill-rule:nonzero;stroke:none"
         id="path18" /><path
         d="m 13643.5,10979.9 c 0,0 53.4,2784 -946.7,3212.7 0,0 -196.2,-2.9 -1234.4,-1831.6 l 2181.1,-1381.1"
         style="fill:#ffffff;fill-opacity:1;fill-rule:nonzero;stroke:none"
         id="path20" /><path
         d="m 8795.17,12313.5 c 0,0 -1121.93,2287 -1682.89,2373.3 0,0 -1111.13,-787.5 -1132.71,-4218"
         style="fill:#100f0d;fill-opacity:1;fill-rule:nonzero;stroke:none"
         id="path22" /><path
         d="m 5979.59,10348.8 c -0.26,0 -0.52,0 -0.77,0 -66.27,0.4 -119.66,54.5 -119.25,120.8 21.72,3452.3 1135.91,4281.5 1183.32,4315.1 25.42,18 56.84,25.5 87.64,20.7 162.75,-25 345.3,-168.1 574.49,-450.2 166.39,-204.8 355.43,-482.5 561.88,-825.5 349.22,-580.3 633.18,-1157.6 636,-1163.3 29.19,-59.5 4.62,-131.4 -54.88,-160.6 -59.49,-29.2 -131.39,-4.6 -160.59,54.8 -2.78,5.7 -282.84,575 -626.91,1146.6 -523.07,868.8 -797.03,1092.5 -919.29,1146.3 -84.15,-79.8 -287.14,-304.1 -490.13,-766.3 -245.6,-559.3 -540.65,-1589.2 -551.53,-3319.2 -0.41,-66 -54.07,-119.2 -119.98,-119.2"
         style="fill:#100f0d;fill-opacity:1;fill-rule:nonzero;stroke:none"
         id="path24" /><path
         d="m 6328.78,10979.9 c 0,0 -53.35,2784 946.73,3212.7 0,0 196.22,-2.9 1234.4,-1831.6 L 6328.78,10979.9"
         style="fill:#ffffff;fill-opacity:1;fill-rule:nonzero;stroke:none"
         id="path26" /><path
         d="m 14760.9,6179.9 c 0,0 704.4,6694.6 -4774.76,6454.6 h 10.76 C 4517.77,12874.5 5222.14,6179.9 5222.14,6179.9"
         style="fill:#100f0d;fill-opacity:1;fill-rule:nonzero;stroke:none"
         id="path28" /><path
         d="m 14641.5,6192.4 c -2.3,-21.9 1.6,-43.1 10.2,-61.8 17.1,2.6 34,4 50.9,4.2 6.7,1.2 13.6,1.9 20.7,1.8 26.9,-0.5 53.2,-6.2 80,-6.7 18.2,-0.3 35.4,-5 50.8,-12.8 0.9,-0.1 1.8,-0.1 2.8,-0.1 12.6,11.7 21,28 23.3,50.3 3.7,35.1 88.9,871 -42.3,1950.9 -77.3,635.6 -214.1,1222.4 -406.8,1744.2 -242.4,656.6 -574.4,1211.8 -986.9,1650.3 -833.3,885.8 -1995.1,1303.7 -3452.68,1242.1 -1457.79,61.6 -2619.34,-356.3 -3452.69,-1242.1 C 6126.35,11074.2 5794.3,10519 5551.89,9862.4 5359.23,9340.6 5222.39,8753.8 5145.17,8118.2 5013.98,7038.3 5099.11,6202.4 5102.8,6167.3 c 6.93,-65.9 65.93,-113.6 131.9,-106.8 65.91,7 113.72,66 106.78,131.9 -0.87,8.4 -86,843.7 41.94,1896.8 117.41,966.5 443.5,2316.4 1330.22,3259 781.39,830.6 1877.12,1223.3 3256.9,1167.3 5.11,-0.7 10.32,-1 15.6,-1 h 10.76 c 5.3,0 10.5,0.3 15.6,1 1379.4,56 2474.9,-336.5 3256.3,-1166.6 885.9,-941.3 1212.3,-2289 1330.1,-3253.9 128.7,-1054.1 43.5,-1894.2 42.6,-1902.6"
         style="fill:#100f0d;fill-opacity:1;fill-rule:nonzero;stroke:none"
         id="path30" /><path
         d="m 10019.5,12175.6 c 0,0 3.7,-28.5 9.3,-78.3 3,-24.8 6.4,-55.1 10,-89.7 3.6,-34.7 8.1,-73.8 12.2,-116.4 4.1,-42.7 8.6,-88.9 13.3,-137.8 4.9,-48.8 9.2,-100.4 14.1,-153.7 4.5,-53.3 9.3,-108.4 13.3,-164.4 4.3,-56 7.9,-112.9 11.8,-169.7 3.8,-56.9 10.2,-113.8 16.6,-169.8 3,-28 6.3,-55.7 8.5,-83.2 2.2,-27.4 3.5,-54.5 4,-81.2 0.5,-53.3 -3,-104.9 -8.4,-153.7 -5.3,-48.9 -12.3,-95.1 -20.3,-137.8 -15.7,-85.3 -35.9,-156.4 -53.2,-206.1 -8.5,-24.9 -16.1,-44.5 -22,-57.8 -5.6,-13.3 -9.2,-20.4 -9.2,-20.4 -3.3,-6.7 -11.3,-9.4 -17.9,-6.1 -2.75,1.4 -4.81,3.5 -6.06,6.1 0,0 -3.54,7.1 -9.13,20.4 -5.91,13.3 -13.5,32.9 -22.07,57.8 -17.24,49.7 -37.46,120.8 -53.16,206.1 -7.98,42.7 -15.05,88.9 -20.3,137.8 -5.45,48.8 -8.95,100.4 -8.37,153.7 0.45,26.7 1.76,53.8 3.95,81.2 2.25,27.5 5.5,55.2 8.49,83.2 6.46,56 12.78,112.9 16.59,169.8 3.96,56.8 7.5,113.7 11.87,169.7 3.99,56 8.8,111.1 13.23,164.4 4.91,53.3 9.23,104.9 14.09,153.7 4.74,48.9 9.23,95.1 13.37,137.8 4.07,42.6 8.6,81.7 12.19,116.4 3.63,34.6 6.96,64.9 9.94,89.7 5.66,49.8 9.31,78.3 9.31,78.3 0.85,6.6 6.86,11.3 13.56,10.4 5.6,-0.7 9.8,-5.1 10.4,-10.4"
         style="fill:#ffffff;fill-opacity:1;fill-rule:nonzero;stroke:none"
         id="path32" /><path
         d="m 12797.4,10526.9 c 0,0 -39.6,862.7 -1204.7,832.7 -101.7,-2.7 -193.4,-10.3 -276.4,-21.9 0.8,50.8 -13.2,94.4 -43.8,125 -96.3,96.3 -320,28.8 -499.7,-150.9 -141.1,-141.1 -213,-309.4 -190.7,-421.8 -49.2,-130.7 -29.6,-237.6 -29.6,-237.6 l -544,13.2 h -1.9 l -544.04,-13.2 c 0,0 19.64,106.9 -29.63,237.6 22.34,112.4 -49.55,280.7 -190.67,421.8 -179.64,179.7 -403.36,247.2 -499.69,150.9 -30.62,-30.6 -44.62,-74.2 -43.79,-125 -82.99,11.6 -174.66,19.2 -276.37,21.9 -1165.11,30 -1204.77,-832.7 -1204.77,-832.7 -2153.13,-561.6 -1589.92,-4313 -1589.92,-4313 h 8759.68 c 0,0 563.2,3751.4 -1590,4313"
         style="fill:#ffffff;fill-opacity:1;fill-rule:nonzero;stroke:none"
         id="path34" /><path
         d="m 12241.1,8991.9 c 0,0 -691.2,418.1 -897.6,1123.6 -196,669.9 -1065.7,779.1 -1357.36,779.1 -291.68,0 -1161.4,-109.2 -1357.37,-779.1 C 8422.41,9410 7731.14,8991.9 7731.14,8991.9"
         style="fill:#ffffff;fill-opacity:1;fill-rule:nonzero;stroke:none"
         id="path36" /><path
         d="m 12241.1,8991.9 c 0,0 -5.5,2.7 -16.2,8.1 -10.6,5.5 -26.5,13.5 -46.5,25.1 -20.1,11.5 -44.8,25.9 -73.4,43.8 -28.6,17.7 -61.1,38.9 -96.6,64 -71.2,49.8 -154.9,114.9 -244.6,197.7 -89,83.4 -184.7,184.4 -273.7,308.6 -88.6,123.9 -172.5,270.4 -229.6,440.4 -7.1,18.9 -14.2,38 -21.4,57.2 -3.6,10.8 -7.6,18.1 -11.4,26.4 -3.8,8.2 -7.6,16.4 -11.4,24.7 -3.3,8.1 -8.7,16.7 -13.2,25.2 -4.6,8.4 -9.3,17 -13.9,25.5 -10,16.7 -21,32.8 -31.4,49.4 -45.3,64.1 -100.3,123.3 -164.6,175.2 -64.1,51.9 -136.8,97 -215.2,135 -78.2,38.3 -162.2,69.4 -249.1,95 -86.9,26 -177.4,44.2 -268.7,58.7 -45.6,7.2 -91.7,12.6 -137.7,16.5 -45.9,3.9 -92.1,6.2 -136.36,6.2 -9.18,-0.3 -24.71,-0.1 -34.53,-0.5 -10.87,-0.3 -21.36,-0.5 -33.04,-1.2 -22.8,-1 -45.8,-2.6 -68.78,-4.5 -45.98,-4 -92.05,-9.4 -137.72,-16.5 -91.28,-14.6 -181.75,-32.9 -268.6,-58.8 -86.91,-25.7 -170.82,-56.9 -249.1,-95.1 -39.48,-18.6 -76.62,-40.2 -112.97,-62.3 -8.94,-5.7 -17.59,-11.7 -26.39,-17.5 -8.67,-5.9 -17.89,-11.2 -26.09,-17.6 -16.65,-12.6 -34.13,-24.2 -49.64,-37.7 -64.32,-51.7 -119.23,-111 -164.48,-175.1 -10.37,-16.6 -21.46,-32.7 -31.38,-49.4 -4.66,-8.5 -9.31,-17 -13.94,-25.5 -4.51,-8.5 -9.74,-16.7 -13.39,-25.6 -4.01,-8.8 -8,-17.6 -11.98,-26.3 -3.97,-8.7 -8.29,-17.3 -11.3,-26.4 -3.37,-9 -6.73,-17.9 -10.08,-26.8 l -5.13,-13.4 -1.28,-3.3 c 0.32,1.2 -1.16,-3.5 -1.26,-3.7 l -0.67,-1.9 -2.69,-7.4 c -7.32,-20 -13.96,-39.2 -21.7,-59.4 -8.53,-21 -17,-41.7 -25.41,-62.3 -9.03,-19.6 -17.98,-39.1 -26.86,-58.4 -9.08,-19.1 -19.14,-37.6 -28.66,-56.1 -39.44,-73.2 -82.05,-141 -126.64,-202.9 -89.03,-124.2 -184.72,-225.2 -273.81,-308.5 -89.74,-82.9 -173.46,-147.9 -244.69,-197.7 -35.49,-25.1 -67.96,-46.3 -96.63,-64 -28.55,-17.8 -53.28,-32.2 -73.4,-43.7 -20.05,-11.6 -35.95,-19.6 -46.54,-25.1 -10.7,-5.4 -16.22,-8.1 -16.22,-8.1 0,0 19.62,15 54.91,44.5 35.41,29.4 85.8,74.3 147.16,133.5 61.21,59.5 132.88,134 208.12,224.4 37.29,45.4 75.92,94.4 113.67,147.9 37.96,53.2 75.53,110.6 110.66,172.4 35.27,61.6 69.03,127.2 98.39,196.9 6.99,17.6 14.56,35 21.45,52.9 6.6,17.9 13.25,36 19.95,54.2 5.72,17.9 11.48,35.9 17.28,54 5.67,19.1 11.1,40 16.73,60.2 l 3.81,13.8 4.88,16.8 c 3.34,11.2 6.69,22.5 10.05,33.8 3.09,11.4 7.59,22.4 11.77,33.5 4.25,11.2 8.51,22.3 12.79,33.6 3.96,11.3 9.58,22 14.53,33.1 5.13,10.9 10.27,21.9 15.42,33 11.02,21.7 23.43,42.9 35.36,64.5 50.91,84.8 117.48,162 192.86,229.8 18.49,17.5 38.65,32.8 58.34,49.1 19.91,15.9 40.84,30.3 61.64,45.2 42.43,28.1 85.92,55.3 131.24,78.8 44.98,24.5 91.58,45.5 138.69,65.8 47.52,18.9 95.59,37.1 144.56,52.1 24.36,8.2 49.09,14.7 73.73,22 24.81,6.4 49.56,13.5 74.6,19.1 49.89,12.3 100.44,21.8 151.26,30.1 50.82,8.3 102.03,14.7 153.68,19.5 25.83,2.4 51.76,4.4 77.95,5.8 12.79,0.8 26.83,1.2 40.48,1.7 14.69,0.5 23.7,0.5 39.04,0.6 53.86,-0.3 105.76,-3.4 157.46,-8.1 51.7,-4.8 102.9,-11.2 153.7,-19.6 50.8,-8.2 101.3,-17.9 151.2,-30.2 25.1,-5.6 49.8,-12.7 74.6,-19 24.6,-7.4 49.4,-13.9 73.7,-22.1 49,-15.1 97.1,-33.1 144.5,-52.1 47.1,-20.3 93.7,-41.3 138.7,-65.8 45.3,-23.5 88.8,-50.7 131.2,-78.8 20.9,-14.8 41.7,-29.5 61.6,-45.3 19.7,-16.2 39.9,-31.5 58.3,-49.1 75.5,-67.7 141.9,-145 192.8,-229.7 11.9,-21.6 24.4,-42.8 35.4,-64.5 5.1,-11 10.3,-22 15.4,-33 5,-11.1 10.4,-21.4 14.7,-33.6 4.5,-11.7 9,-23.4 13.4,-35.1 4.4,-11.6 9.2,-23.8 11.7,-33.5 6.2,-21.4 12.3,-42.6 18.4,-63.7 5.3,-19.1 10.2,-38.2 15.7,-57 6,-18.7 12,-37.3 17.9,-55.8 6.7,-18.2 13.4,-36.3 20,-54.2 6.9,-17.9 14.4,-35.4 21.4,-53 29.4,-69.7 63.2,-135.2 98.4,-196.9 35.2,-61.8 72.8,-119.1 110.7,-172.4 37.8,-53.5 76.5,-102.4 113.8,-147.9 75.3,-90.3 146.9,-164.9 208.2,-224.3 61.4,-59.2 111.8,-104.1 147.2,-133.4 35.3,-29.6 54.9,-44.5 54.9,-44.5"
         style="fill:#100f0d;fill-opacity:1;fill-rule:nonzero;stroke:none"
         id="path38" /><path
         d="m 11000.1,10158.5 c 0,-352.6 -444.8,-1098.2 -993.5,-1098.2 -548.72,0 -993.54,745.6 -993.54,1098.2 0,352.6 444.82,507.1 993.54,507.1 548.7,0 993.5,-154.5 993.5,-507.1"
         style="fill:#100f0d;fill-opacity:1;fill-rule:nonzero;stroke:none"
         id="path40" /><path
         d="m 10006.7,6618.9 c 2223.4,0 2215.2,1554.9 2215.2,1554.9 -1528,581.5 -2215.2,488 -2215.2,488 h -0.1 c 0,0 -687.22,93.5 -2215.28,-488 0,0 -8.16,-1554.9 2215.18,-1554.9"
         style="fill:#100f0d;fill-opacity:1;fill-rule:nonzero;stroke:none"
         id="path42" /><path
         d="m 12446.6,8644.5 c 0,0 -71.6,-733 -855.8,-671 -784.1,62 -684.3,688.3 -1584.1,688.3 h -0.1 c -899.85,0 -800.01,-626.3 -1584.19,-688.3 -784.19,-62 -855.8,671 -855.8,671"
         style="fill:#ffffff;fill-opacity:1;fill-rule:nonzero;stroke:none"
         id="path44" /><path
         d="m 12446.6,8644.5 c 0,0 0.1,-5.9 -0.4,-17.3 -0.7,-11.4 -1.6,-28.3 -4.4,-50.3 -6.1,-43.7 -16.2,-108.8 -45,-188 -14.2,-39.6 -33.2,-82.7 -58.7,-127.6 -25.4,-44.9 -58.2,-91.2 -99.8,-135.9 -41.4,-44.6 -92.6,-86.6 -152.3,-122.3 -59.6,-35.7 -128.2,-63.5 -201.8,-82.5 -73.8,-19.1 -152.5,-28.3 -233.4,-30.2 -20.2,0.1 -40.6,0.2 -61.1,0.4 h -3.9 c -1.6,0.1 0.8,-0.2 -4,0.3 l -1.8,0.1 -7.2,0.4 -14.5,0.9 c -9.7,0.7 -19.4,1.3 -29.1,1.9 -18.6,0.6 -41.4,4 -62.8,6.4 -10.8,1.4 -21.9,2.5 -32.7,4.2 -10.6,1.9 -21.2,3.8 -31.9,5.6 -85.5,15 -173.2,42.2 -257.8,81.6 -84.7,39.3 -163.9,93.3 -236.3,150.4 -36.3,28.7 -71,57.8 -104.9,86.9 -33.7,28.9 -66.9,57.2 -100.1,83.9 -66.6,52.8 -133.8,98.9 -206.6,133.5 -36,18 -74.2,31.6 -112.8,44.7 -19.8,5.2 -39.2,11.5 -59.4,16.1 l -30.4,6.9 -15.1,3.5 -15.5,2.6 c -82.4,15.2 -168.7,21.1 -256.3,21.2 l -67.29,-1.4 c -12.27,0.1 -21.83,-1 -32.33,-1.6 l -31.01,-2 -15.51,-1 -15.86,-1.9 -31.72,-3.6 -15.85,-1.8 c -5.24,-0.8 -10.38,-1.8 -15.57,-2.6 l -31.07,-5.3 -15.5,-2.7 -15.17,-3.5 -30.33,-6.9 c -20.12,-4.8 -39.57,-10.9 -59.41,-16.2 -38.55,-13 -76.72,-26.6 -112.76,-44.7 -36.54,-17 -71.3,-37.7 -105.52,-60 -34.37,-22 -67.67,-47.4 -100.98,-73.5 -33.2,-26.7 -66.4,-55 -100.06,-83.9 -33.9,-29.2 -68.59,-58.2 -104.9,-86.9 -36.51,-28.5 -73.79,-56.6 -113.59,-81.9 -19.36,-13.1 -40.06,-24.7 -60.21,-36.6 -10.05,-6 -20.82,-10.9 -31.15,-16.4 -10.51,-5.2 -20.67,-10.9 -31.37,-15.6 -84.69,-39.5 -172.41,-66.5 -257.91,-81.6 -10.69,-1.9 -21.34,-3.8 -31.96,-5.7 -10.61,-1.6 -21.21,-2.6 -31.75,-4 -21.07,-2.3 -41.98,-5.5 -62.66,-6.4 -10.33,-0.7 -20.63,-1.4 -30.89,-2 l -15.33,-1 -7.64,-0.5 -1.91,-0.2 c -5.65,-0.3 -2.6,-0.1 -4.33,-0.1 l -3.6,-0.1 c -19.22,-0.1 -38.28,-0.1 -57.18,-0.2 -8.98,-0.2 -20.04,0.6 -30.31,1.1 -10.38,0.5 -20.72,1.1 -31.01,1.7 -20.77,0.7 -40.35,3.4 -59.88,5.8 -9.75,1.3 -19.45,2.5 -29.1,3.7 -9.64,1.5 -19.22,3.6 -28.74,5.4 -19.03,3.7 -37.86,6.8 -56.21,12.4 -73.66,19.1 -142.26,47 -201.95,82.7 -59.69,35.6 -110.85,77.7 -152.33,122.4 -41.53,44.6 -74.34,90.9 -99.72,135.9 -25.5,44.9 -44.49,88 -58.66,127.6 -28.85,79.3 -38.92,144.3 -44.95,188.1 -2.83,22 -3.73,38.9 -4.34,50.3 -0.5,11.4 -0.47,17.3 -0.47,17.3 0,0 1.2,-5.8 4.07,-16.7 2.87,-11 7.63,-27.1 14.21,-47.9 13.47,-41.4 36.38,-101.4 75.39,-171.1 39.15,-69.1 95.3,-148.8 178.05,-216 82.17,-67.5 191.5,-118.9 318.81,-136.3 15.66,-3 32.08,-3.8 48.37,-5.5 8.17,-0.7 16.32,-1.6 24.59,-2.2 8.34,-0.2 16.72,-0.4 25.14,-0.6 16.8,-0.4 33.85,-1.2 50.24,0 8.26,0.4 16.56,0.7 24.9,1 8.44,0.4 16.19,0.3 26.05,1.6 18.82,1.7 37.79,3.6 56.92,5.4 17.13,2.5 34.39,5.1 51.78,7.7 18.23,2.2 35.94,6.6 53.99,10.1 8.97,1.9 18.09,3.5 27.01,5.7 8.86,2.4 17.75,4.7 26.67,7.1 71.27,18.9 140.97,45.1 206.79,81.7 65.72,36.9 128.16,82.8 190.22,137.7 31.11,27.2 62.3,56.9 94.87,86.8 32.71,30.3 66.51,61.5 102.4,92.6 36.4,31 74.1,62.1 115.42,90.9 41.34,28.5 84.91,55.7 131.2,78.7 184.54,97 397.56,125.4 592.9,126.6 99.2,-0.8 200,-8.2 300.5,-27.4 l 18.8,-3.5 18.8,-4.4 37.5,-8.9 c 25,-6.3 49.6,-14.7 74.3,-22 48.8,-17.5 97.2,-36.4 143,-60.5 46.2,-23.1 89.9,-50.1 131.1,-78.8 41.3,-28.8 79,-59.9 115.4,-90.9 35.9,-31.1 69.7,-62.3 102.4,-92.6 32.5,-29.9 63.7,-59.7 94.8,-86.9 62.2,-54.8 124.5,-100.8 190.3,-137.7 65.9,-36.6 135.6,-62.7 206.9,-81.8 8.9,-2.3 17.8,-4.7 26.7,-7 8.8,-2.2 17.4,-3.7 26.1,-5.6 17.7,-3.4 33.5,-7.7 53.8,-10.1 9.7,-1.5 19.3,-2.9 28.9,-4.3 l 14.3,-2.1 7.2,-1 1.7,-0.3 c -3.6,0.3 0,0 -0.4,0 l 3.3,-0.3 c 17.8,-1.7 35.5,-3.5 53,-5.2 70.1,-5.3 137.6,-3.4 201.2,5.6 127.3,17.6 236.7,69 318.9,136.5 82.7,67.3 138.9,147 178,216.2 39,69.7 61.9,129.7 75.3,171.1 6.6,20.8 11.3,36.9 14.2,47.9 2.8,10.9 4,16.7 4,16.7"
         style="fill:#100f0d;fill-opacity:1;fill-rule:nonzero;stroke:none"
         id="path46" /><path
         d="m 10006.7,8541.8 c -66.31,0 -120.03,53.8 -120.03,120 v 868.7 c 0,66.3 53.72,120 120.03,120 66.2,0 120,-53.7 120,-120 v -868.7 c 0,-66.2 -53.8,-120 -120,-120"
         style="fill:#100f0d;fill-opacity:1;fill-rule:nonzero;stroke:none"
         id="path48" /><path
         d="M 18557.1,6093.9 H 1442.93 c -66.28,0 -120,53.7 -120,120 0,66.2 53.72,120 120,120 H 18557.1 c 66.3,0 120,-53.8 120,-120 0,-66.3 -53.7,-120 -120,-120"
         style="fill:#100f0d;fill-opacity:1;fill-rule:nonzero;stroke:none"
         id="path50" /><path
         d="m 10006.9,5347.4 c -0.1,0 -0.2,0 -0.3,0 -0.1,0 -0.2,0 -0.3,0 h 0.6"
         style="fill:#f57385;fill-opacity:1;fill-rule:nonzero;stroke:none"
         id="path52" /><path
         d="m 10006.9,5227.4 h -0.6 c -66.26,0 -119.99,53.7 -119.99,120 0,65.1 51.93,118.2 116.69,119.9 2.4,0.1 4.8,0.1 7.3,0 64.7,-1.8 116.6,-54.8 116.6,-119.9 0,-66.3 -53.7,-120 -119.9,-120 h -0.1"
         style="fill:#100f0d;fill-opacity:1;fill-rule:nonzero;stroke:none"
         id="path54" /><path
         d="m 11000.1,7525.5 c -333.5,400.9 -993.4,0 -993.4,0 h -0.2 c 0,0 -659.9,400.9 -993.44,0 -333.52,-400.8 -712.48,-2177.9 993.54,-2178.1 1706,0.2 1327.1,1777.3 993.5,2178.1"
         style="fill:#f57385;fill-opacity:1;fill-rule:nonzero;stroke:none"
         id="path56" /><path
         d="m 9418.87,7583.7 c -135.45,0 -238.02,-44.1 -313.56,-134.9 -187.17,-225 -387.23,-944.6 -152.48,-1445.3 166.72,-355.7 521.26,-536.1 1053.77,-536.1 532.5,0 887.1,180.4 1053.8,536.1 234.7,500.7 34.7,1220.3 -152.5,1445.3 -75.5,90.8 -178.1,134.9 -313.6,134.9 -257.8,0 -522.7,-159.1 -525.3,-160.7 -37.6,-22.8 -87.2,-22.8 -124.75,0 -2.52,1.5 -269.38,160.7 -525.38,160.7 z m 587.73,-2356.3 v 0 c -789.39,0.1 -1126.93,366.7 -1271.08,674.2 -159.92,341.1 -142.59,717.1 -99.9,972.4 49.75,297.6 159.04,576.7 285.2,728.3 120.52,144.8 292.74,221.4 498.05,221.4 242.62,0 478.74,-105.1 587.73,-161.3 109,56.2 345.1,161.3 587.7,161.3 205.4,0 377.6,-76.6 498.1,-221.4 126.2,-151.6 235.4,-430.7 285.2,-728.3 42.7,-255.3 60,-631.3 -99.9,-972.4 -144.2,-307.5 -481.7,-674.1 -1271.1,-674.2"
         style="fill:#100f0d;fill-opacity:1;fill-rule:nonzero;stroke:none"
         id="path58" /><path
         d="m 5874.59,5948.6 c 0,0 159.29,-451 555.65,-212 396.35,238.9 314.53,667.9 240.46,917.1 C 6596.62,6902.9 6251.85,7882 5054.22,7708.8 3856.59,7535.5 3649.74,6552.6 3763.17,5869.1 c 113.42,-683.6 643.78,-482.2 643.78,-482.2 0,0 331.36,75.2 331.36,436.9 0,0 71.71,-665.6 675,-476.9 603.28,188.6 440.99,483.5 461.28,601.7"
         style="fill:#ffffff;fill-opacity:1;fill-rule:nonzero;stroke:none"
         id="path60" /><path
         d="m 4738.4,5943.8 c 60.89,0 112.62,-45.9 119.22,-107.1 1.85,-16.1 49.78,-403.5 354.72,-403.5 h 0.01 c 49.73,0 105.29,9.5 165.14,28.2 401.98,125.7 389.7,269.8 378.85,396.9 -3.24,38.1 -6.3,74 -0.02,110.6 9.24,53.8 53.68,94.6 108.11,99.2 54.46,4.7 105.12,-28.1 123.31,-79.6 0.54,-1.4 75.36,-201.8 223.93,-201.8 46.02,0 98.71,17.7 156.61,52.6 242.59,146.3 302.14,394.2 187.4,780.2 -88.46,297.6 -385.26,989.7 -1228.68,989.7 -81.63,0 -167.62,-6.5 -255.6,-19.2 -428.09,-61.9 -749.98,-236.7 -956.73,-519.5 -315.76,-431.8 -268.22,-970.3 -233.12,-1181.8 45.09,-271.7 164.53,-409.5 355,-409.5 72.35,0 128.01,19.9 128.56,20.1 5.75,2.2 8.96,3.3 14.86,4.5 27.16,6.8 238.34,67.9 238.34,320 0,63.8 49.88,116.5 113.56,119.9 2.18,0.1 4.36,0.1 6.53,0.1 z m 473.95,-750.6 c -0.01,0 -0.01,0 -0.02,0 -198.75,0 -365.19,96.3 -473.81,272.6 -90.59,-113 -213.35,-173.3 -297.57,-194.2 -26.24,-8.9 -104.65,-32.4 -204.4,-32.4 -132.53,0 -253.11,42 -348.67,121.3 -124.65,103.6 -206.44,268.1 -243.1,488.9 -40.06,241.4 -93.34,857.5 276.15,1362.8 246.27,336.8 621.78,543.8 1116.11,615.3 99.32,14.4 196.87,21.7 289.96,21.7 453.06,0 824.66,-166.2 1104.47,-493.9 197.62,-231.5 301.73,-490.7 354.26,-667.4 58.06,-195.3 77.8,-362.4 60.33,-510.6 -27.79,-235.8 -146.84,-418.7 -353.86,-543.5 -95.82,-57.8 -190.21,-87.1 -280.53,-87.1 -96.98,0 -176.13,32.1 -239.48,77.3 -50.19,-136.3 -184.09,-285.6 -523.07,-391.7 -83.05,-25.9 -162.72,-39.1 -236.77,-39.1"
         style="fill:#100f0d;fill-opacity:1;fill-rule:nonzero;stroke:none"
         id="path62" /><path
         d="m 10126.5,7525.5 -120,-1863.6 -119.96,1863.6 c -4.27,66.3 46,123.5 112.28,127.8 66.28,4.2 123.48,-46 127.68,-112.3 0.4,-5 0.3,-10.6 0,-15.5"
         style="fill:#100f0d;fill-opacity:1;fill-rule:nonzero;stroke:none"
         id="path64" /><path
         d="m 16002.1,6211 c 232.7,2710.9 -861.8,2226.1 -861.8,2226.1 0,0 137.1,391.5 -343.3,524 -476.6,131.5 -566.5,-319.4 -566.5,-319.4 0,0 -119.7,271.9 -582.1,168.9 -462.4,-103.1 -335,-698.3 -335,-698.3 C 12289.9,8268 13029.5,6211 13029.5,6211 h 2972.6"
         style="fill:#ffffff;fill-opacity:1;fill-rule:nonzero;stroke:none"
         id="path66" /><path
         d="m 13109.7,6328.1 h 2788.2 c 90,1196.3 -95.4,1682.8 -269.8,1880 -85.4,96.6 -187.8,145.5 -304.2,145.5 -80.8,0 -139.3,-24.3 -139.8,-24.5 -41.9,-19.4 -90,-11.3 -123.3,21.3 -33.1,32.5 -43.3,81.9 -27.1,126 2.5,8.2 32.4,110.5 -15.8,203.7 -39.7,76.6 -123.8,133.1 -250.1,167.9 -48.3,13.3 -93.5,20.1 -134.5,20.1 -231.7,0 -286.6,-225.2 -292.1,-250.9 -10.1,-50.7 -49.9,-90.7 -99.8,-95.3 -49.4,-4.3 -94.6,22.6 -113.4,70 -7.6,14 -74.5,124.9 -283.8,124.9 -52.5,0 -110.4,-7 -172,-20.7 -142.2,-31.7 -224.7,-125.6 -252.1,-287.1 -23.5,-137.8 3.6,-270.4 3.8,-271.7 7.9,-37.5 -2.6,-76.8 -27.9,-104.9 -25.4,-28 -62.4,-41.5 -99.1,-36 -31.3,4.8 -61.1,7.2 -88.6,7.2 -109.6,0 -184.9,-36 -236.8,-113.3 -107.3,-159.7 -115.5,-499.1 -23.2,-955.7 52.3,-258.7 123.7,-491.3 161.4,-606.5 z m 2892.4,-234.2 h -2972.6 c -47.3,0 -89.6,30.4 -106.1,76.2 -4.8,13.5 -119.3,333.6 -196.7,716.5 -108.2,535.4 -88.4,918 58.9,1137.3 90,134.1 227.9,207.6 399.9,213.5 -5.6,124.6 6.9,304.3 98.7,452.3 76.1,122.8 190.6,202 340.4,235.3 77.2,17.2 151.1,26 219.6,26 160.6,0 273.1,-47.1 349.4,-101.3 77.7,128.1 217,252.6 439.7,252.6 60.6,0 125.5,-9.4 192.8,-28 191.3,-52.8 323.7,-149.6 393.5,-287.8 35.4,-70.2 49,-140.1 51.7,-200.9 16.7,1.4 34.3,2.2 52.6,2.2 125.5,0 309.2,-38.4 471.2,-221.6 305.8,-345.7 413.4,-1074.3 319.7,-2165.6 -5.2,-60.4 -54.1,-106.7 -112.7,-106.7"
         style="fill:#100f0d;fill-opacity:1;fill-rule:nonzero;stroke:none"
         id="path68" /><path
         d="m 13497.9,7650.1 c 21.5,-132.9 -65.2,-258.7 -193.7,-280.9 -128.4,-22.2 -250,67.5 -271.5,200.4 -21.4,132.9 65.3,258.6 193.7,280.8 128.5,22.3 250,-67.5 271.5,-200.3"
         style="fill:#f57385;fill-opacity:1;fill-rule:nonzero;stroke:none"
         id="path70" /><path
         d="m 14029.3,8365.3 c 21.4,-132.9 -65.3,-258.6 -193.7,-280.8 -128.5,-22.3 -250,67.4 -271.5,200.3 -21.5,132.9 65.2,258.7 193.7,280.9 128.4,22.2 250,-67.5 271.5,-200.4"
         style="fill:#f57385;fill-opacity:1;fill-rule:nonzero;stroke:none"
         id="path72" /><path
         d="m 14903.7,8516.6 c 21.5,-132.9 -65.2,-258.6 -193.7,-280.8 -128.4,-22.3 -249.9,67.4 -271.4,200.3 -21.5,132.9 65.2,258.7 193.7,280.9 128.4,22.2 249.9,-67.5 271.4,-200.4"
         style="fill:#f57385;fill-opacity:1;fill-rule:nonzero;stroke:none"
         id="path74" /><path
         d="m 15511.9,8036.4 c 21.5,-132.9 -65.2,-258.6 -193.6,-280.8 -128.5,-22.3 -250,67.4 -271.5,200.3 -21.5,132.9 65.2,258.7 193.7,280.9 128.4,22.2 250,-67.5 271.4,-200.4"
         style="fill:#f57385;fill-opacity:1;fill-rule:nonzero;stroke:none"
         id="path76" /><path
         d="m 15126.3,7345.8 c 49.8,-308 -251.8,-409 -633.4,-475.1 -381.5,-66 -698.5,-71.9 -748.3,236.1 -49.8,308 185,822.9 566.5,888.9 381.5,66 765.4,-341.9 815.2,-649.9"
         style="fill:#f57385;fill-opacity:1;fill-rule:nonzero;stroke:none"
         id="path78" /><path
         d="m 8691.32,10391.3 c 0,-248.5 -201.47,-450 -450,-450 -248.53,0 -450,201.5 -450,450 0,248.6 201.47,450 450,450 248.53,0 450,-201.4 450,-450"
         style="fill:#100f0d;fill-opacity:1;fill-rule:nonzero;stroke:none"
         id="path80" /><path
         d="m 8490.79,10590.8 c 0,-66 -53.49,-119.5 -119.47,-119.5 -65.98,0 -119.47,53.5 -119.47,119.5 0,66 53.49,119.5 119.47,119.5 65.98,0 119.47,-53.5 119.47,-119.5"
         style="fill:#ffffff;fill-opacity:1;fill-rule:nonzero;stroke:none"
         id="path82" /><path
         d="m 12216.4,10391.3 c 0,-248.5 -201.5,-450 -450,-450 -248.5,0 -450,201.5 -450,450 0,248.6 201.5,450 450,450 248.5,0 450,-201.4 450,-450"
         style="fill:#100f0d;fill-opacity:1;fill-rule:nonzero;stroke:none"
         id="path84" /><path
         d="m 12015.9,10590.8 c 0,-66 -53.5,-119.5 -119.5,-119.5 -66,0 -119.5,53.5 -119.5,119.5 0,66 53.5,119.5 119.5,119.5 66,0 119.5,-53.5 119.5,-119.5"
         style="fill:#ffffff;fill-opacity:1;fill-rule:nonzero;stroke:none"
         id="path86" /></g></g></svg>
